<?xml version="1.0" standalone="no"?>
<!DOCTYPE svg PUBLIC "-//W3C//DTD SVG 20010904//EN"
 "http://www.w3.org/TR/2001/REC-SVG-20010904/DTD/svg10.dtd">
<svg version="1.0" xmlns="http://www.w3.org/2000/svg"
 width="460.000000pt" height="460.000000pt" viewBox="0 0 460.000000 460.000000"
 preserveAspectRatio="xMidYMid meet">

<g transform="translate(0.000000,460.000000) scale(0.100000,-0.100000)"
fill="#000000" stroke="none">
<path d="M2462 4578 c7 -15 15 -23 17 -17 2 6 -4 18 -13 27 -15 15 -15 15 -4
-10z"/>
<path d="M1918 4568 c-19 -16 -62 -78 -53 -78 9 0 35 27 35 36 0 4 10 18 22
31 23 25 21 31 -4 11z"/>
<path d="M3692 4560 c0 -14 2 -19 5 -12 2 6 2 18 0 25 -3 6 -5 1 -5 -13z"/>
<path d="M2210 4566 c0 -2 9 -6 20 -9 11 -3 18 -1 14 4 -5 9 -34 13 -34 5z"/>
<path d="M2594 4548 c-4 -7 -3 -10 1 -5 5 4 18 -1 29 -10 21 -18 21 -18 2 5
-22 26 -23 26 -32 10z"/>
<path d="M2429 4519 c-23 -19 -23 -20 -2 -10 12 6 25 16 28 21 10 16 -1 12
-26 -11z"/>
<path d="M2685 4494 c0 -24 3 -44 8 -44 4 0 7 18 7 39 0 22 -3 42 -7 44 -5 3
-8 -15 -8 -39z"/>
<path d="M2570 4519 c0 -5 5 -7 10 -4 6 3 10 8 10 11 0 2 -4 4 -10 4 -5 0 -10
-5 -10 -11z"/>
<path d="M3820 4502 c0 -6 6 -15 14 -19 8 -4 24 -25 36 -46 12 -21 25 -36 27
-33 7 7 -32 68 -57 91 -11 10 -20 13 -20 7z"/>
<path d="M2410 4480 l-35 -7 32 -2 c17 0 35 4 38 9 3 6 5 9 3 9 -2 -1 -19 -5
-38 -9z"/>
<path d="M2535 4480 c-16 -7 -17 -9 -3 -9 9 -1 20 4 23 9 7 11 7 11 -20 0z"/>
<path d="M1825 4440 c-10 -11 -16 -22 -13 -25 3 -3 13 6 22 20 20 30 16 32 -9
5z"/>
<path d="M1919 4436 c7 -8 9 -21 5 -27 -4 -8 -3 -9 4 -5 17 10 15 33 -4 40
-14 5 -15 4 -5 -8z"/>
<path d="M3708 4443 c6 -2 18 -2 25 0 6 3 1 5 -13 5 -14 0 -19 -2 -12 -5z"/>
<path d="M3611 4421 c-8 -5 -9 -11 -3 -15 5 -3 12 1 16 9 6 17 6 18 -13 6z"/>
<path d="M2620 4370 c-6 -11 -8 -20 -6 -20 3 0 10 9 16 20 6 11 8 20 6 20 -3
0 -10 -9 -16 -20z"/>
<path d="M3640 4380 c0 -5 5 -10 10 -10 6 0 10 5 10 10 0 6 -4 10 -10 10 -5 0
-10 -4 -10 -10z"/>
<path d="M3943 4300 c23 -50 43 -86 45 -81 3 10 -66 159 -78 166 -5 3 10 -35
33 -85z"/>
<path d="M1782 4360 c-18 -29 -15 -38 4 -12 9 13 14 25 12 27 -2 2 -9 -5 -16
-15z"/>
<path d="M2589 4313 c-13 -16 -12 -17 4 -4 16 13 21 21 13 21 -2 0 -10 -8 -17
-17z"/>
<path d="M1902 4295 c0 -16 2 -22 5 -12 2 9 2 23 0 30 -3 6 -5 -1 -5 -18z"/>
<path d="M1737 4265 c-9 -20 -17 -41 -16 -48 0 -7 9 8 20 32 23 53 20 66 -4
16z"/>
<path d="M2576 4275 c-9 -26 -7 -32 5 -12 6 10 9 21 6 23 -2 3 -7 -2 -11 -11z"/>
<path d="M3696 4243 c-6 -14 -5 -15 5 -6 7 7 10 15 7 18 -3 3 -9 -2 -12 -12z"/>
<path d="M2147 4224 c-3 -4 -28 -8 -56 -10 -27 -2 -60 -9 -73 -14 -19 -8 -16
-9 17 -4 22 3 51 8 65 11 21 4 27 -1 41 -34 9 -21 20 -54 23 -73 4 -19 14 -57
23 -83 11 -36 12 -52 4 -60 -8 -8 -11 -4 -13 13 0 14 -4 3 -9 -25 -6 -47 -7
-45 -6 22 1 39 -2 75 -6 80 -5 4 -5 0 -2 -9 7 -19 -26 -45 -65 -51 -19 -3 -34
-22 -66 -82 -22 -44 -46 -81 -52 -83 -7 -2 6 28 28 66 22 38 40 73 40 79 0 5
9 18 20 28 11 10 20 13 20 7 0 -8 11 -6 34 4 25 13 34 23 34 43 0 29 -35 84
-48 76 -4 -3 -11 2 -14 11 -5 12 -16 15 -49 11 -105 -13 -132 -38 -148 -137
-19 -113 15 -229 75 -256 23 -10 29 -38 40 -170 l6 -81 -35 -1 c-32 -1 -36 1
-33 20 2 12 -3 23 -12 25 -11 3 -11 2 -3 -4 15 -11 -1 -38 -17 -28 -6 4 -9 12
-7 19 3 7 -4 13 -15 13 -11 1 -28 9 -38 18 -14 13 -16 23 -9 53 12 52 11 165
-1 157 -5 -3 -10 -1 -10 5 0 6 7 13 15 16 10 4 15 20 15 53 0 25 7 101 17 167
l17 121 55 10 56 10 -64 -2 c-41 -2 -67 -8 -71 -17 -4 -7 -11 -40 -15 -73 -3
-33 -15 -94 -25 -135 -10 -41 -21 -97 -25 -123 -3 -27 -9 -59 -12 -70 -16 -64
-14 -86 11 -136 15 -28 30 -51 34 -51 5 0 9 -116 10 -257 0 -142 1 -262 2
-268 0 -5 14 -25 31 -43 29 -33 31 -33 50 -16 17 15 19 15 19 1 0 -9 -7 -22
-15 -29 -60 -50 -85 -80 -85 -101 0 -13 6 -70 14 -128 8 -57 20 -167 25 -244
6 -77 13 -164 16 -192 5 -51 4 -53 -20 -53 -24 0 -25 2 -25 73 0 46 -13 136
-35 238 -46 217 -62 269 -83 269 -14 0 -14 -2 -3 -9 7 -5 10 -14 7 -20 -4 -6
-2 -11 4 -11 6 0 8 -5 5 -10 -4 -6 -10 -8 -15 -5 -4 3 -18 -15 -30 -39 -13
-27 -26 -43 -34 -40 -7 3 -25 0 -39 -5 -23 -9 -27 -16 -27 -52 0 -55 -24 -47
-28 10 -2 31 0 41 10 40 24 -5 118 50 118 69 0 10 5 23 12 30 7 7 8 16 2 24
-13 18 -17 65 -6 72 14 9 4 139 -17 203 -10 32 -22 74 -26 93 -7 38 -36 132
-67 224 -15 43 -20 82 -19 139 2 78 1 80 -45 150 -41 62 -48 69 -56 52 -6 -15
-7 -13 -3 8 4 21 -3 42 -26 80 -18 29 -43 72 -57 97 -14 25 -40 66 -58 93 -18
26 -36 56 -39 67 -8 24 -66 28 -84 6 -9 -11 -6 -12 16 -8 28 5 28 5 9 -16 -10
-12 -22 -19 -27 -17 -4 3 -10 1 -14 -5 -6 -9 8 -15 28 -11 14 3 2 -22 -13 -27
-7 -3 -10 0 -6 7 4 6 1 11 -8 11 -8 0 -16 6 -19 13 -2 6 -8 8 -13 4 -5 -5 -1
-13 9 -18 9 -6 15 -15 12 -20 -4 -5 -10 -7 -15 -4 -14 9 -50 -13 -46 -28 1 -6
1 -9 -1 -4 -13 22 -31 1 -42 -47 -15 -66 0 -161 32 -215 24 -40 76 -90 94 -91
8 0 11 -10 7 -30 -8 -36 13 -90 33 -90 9 0 13 -6 9 -15 -3 -8 1 -36 9 -62 8
-26 13 -49 10 -51 -2 -2 -22 -8 -45 -13 -38 -9 -47 -7 -90 21 -27 17 -55 41
-63 53 -19 30 -34 102 -47 227 -6 58 -12 112 -14 120 -4 22 -14 97 -21 157 -5
49 -5 51 17 46 19 -4 20 -3 6 6 -22 14 -50 3 -44 -18 3 -9 10 -70 16 -136 23
-245 47 -409 61 -414 6 -2 22 -13 36 -25 22 -19 26 -32 31 -99 2 -42 9 -77 14
-77 5 0 6 4 3 10 -3 6 1 7 9 4 12 -5 16 0 16 20 0 14 -4 26 -9 26 -5 0 -6 12
-2 28 7 22 13 26 32 23 13 -3 45 -5 71 -5 25 -1 44 -4 41 -8 -2 -5 0 -8 6 -8
5 0 11 -21 13 -47 3 -44 5 -48 37 -57 23 -7 39 -6 52 2 30 19 36 13 9 -8 -14
-11 -20 -20 -13 -20 19 0 53 51 53 81 0 26 -5 34 -45 67 -23 19 -19 28 19 39
30 9 37 8 52 -8 17 -19 35 -17 33 4 0 9 -2 8 -6 -1 -7 -17 -23 -5 -23 19 0 13
4 18 12 13 7 -4 8 -3 4 4 -9 14 24 52 44 51 10 0 11 -2 2 -6 -6 -2 -9 -9 -6
-14 7 -12 -26 -119 -37 -119 -13 0 -11 -44 3 -58 9 -9 9 -12 0 -12 -9 0 -9 -6
0 -25 16 -35 28 -21 26 30 -1 24 -6 41 -10 39 -4 -3 -8 2 -8 11 0 34 25 7 37
-41 6 -27 17 -50 22 -52 5 -2 7 -11 4 -20 -5 -13 -3 -14 6 -6 9 9 10 17 2 31
-7 14 -7 23 1 31 7 7 6 17 -5 32 -11 16 -16 18 -21 8 -3 -7 -4 -3 -2 9 2 12 0
23 -4 25 -4 2 -11 14 -15 27 -4 13 -3 21 2 18 5 -3 9 4 8 16 0 12 4 23 9 25
11 4 57 -138 49 -151 -3 -6 -1 -7 5 -3 8 5 12 -1 12 -17 0 -13 9 -52 20 -86
19 -60 24 -155 8 -145 -4 3 -5 -2 -2 -10 3 -9 10 -13 16 -10 5 3 2 -11 -8 -33
-9 -21 -21 -53 -27 -70 -6 -21 -17 -33 -28 -33 -10 0 -21 -5 -24 -10 -13 -22
-41 8 -43 47 -1 30 3 42 23 56 l25 18 6 -31 c4 -17 11 -33 16 -36 11 -7 -1 46
-14 63 -11 14 -1 56 12 48 4 -3 13 2 20 10 19 23 -6 19 -29 -4 -16 -16 -20
-17 -25 -5 -3 8 -1 14 4 14 6 0 10 13 10 29 0 16 7 41 15 57 10 19 11 30 4 35
-8 4 -7 14 2 30 11 22 11 23 -4 10 -10 -8 -17 -28 -17 -47 0 -23 -6 -38 -20
-46 -11 -7 -20 -18 -20 -25 0 -7 -7 -13 -15 -13 -10 0 -6 -8 10 -25 29 -28 30
-34 10 -61 -14 -18 -14 -17 -15 13 0 38 -22 54 -63 46 -38 -7 -34 4 6 16 26 7
28 9 9 10 -13 1 -35 -8 -49 -19 -14 -11 -36 -20 -49 -20 -32 0 -74 -38 -74
-67 0 -13 5 -23 10 -23 6 0 10 -5 10 -10 0 -6 -8 -5 -20 2 -11 7 -20 23 -20
35 0 13 9 32 20 43 11 11 16 20 10 20 -15 0 -50 -42 -50 -60 0 -18 40 -60 57
-60 9 0 23 -51 23 -87 0 -21 -60 -15 -90 10 -55 44 -74 57 -82 57 -4 0 -8 15
-8 33 0 21 -8 41 -20 52 -11 10 -20 23 -20 28 0 6 8 3 18 -6 22 -20 37 -11 19
11 -9 13 -9 14 1 8 6 -4 12 -2 12 3 0 6 -6 11 -14 11 -15 0 -29 27 -21 40 3 4
-3 14 -13 21 -12 9 -14 9 -6 0 7 -8 8 -27 3 -54 -6 -35 -4 -46 13 -64 13 -14
18 -28 14 -40 -6 -15 -8 -15 -16 -3 -7 11 -10 5 -10 -20 0 -38 54 -135 70
-125 5 3 12 -4 15 -16 5 -14 0 -28 -14 -43 -26 -27 -28 -97 -7 -189 22 -92 64
-285 75 -342 20 -99 39 -172 49 -191 9 -16 7 -22 -9 -32 -22 -14 -24 -9 -8 19
9 17 7 20 -7 17 -12 -2 -22 11 -36 52 -25 73 -78 277 -78 304 0 12 -16 34 -35
51 -34 30 -35 31 -23 73 16 64 -4 165 -48 238 -38 63 -39 69 -20 103 11 20 11
28 -2 53 -8 17 -12 44 -10 61 6 36 1 57 -13 57 -4 0 -6 -7 -3 -15 4 -8 1 -15
-6 -15 -6 0 -9 4 -6 9 3 5 -1 14 -9 21 -8 7 -12 17 -9 22 4 5 -1 8 -11 6 -15
-3 -17 -21 -18 -158 l-2 -155 -55 -27 c-91 -46 -162 -69 -194 -66 l-31 4 45
22 c25 12 37 22 28 22 -10 0 -33 -9 -53 -20 -20 -11 -38 -20 -40 -20 -3 0 -24
39 -49 88 -60 119 -82 161 -95 176 -12 15 -4 73 13 95 6 8 26 20 44 28 17 7
32 20 32 28 0 8 6 15 13 15 11 1 -41 34 -55 35 -21 1 -17 18 7 37 58 47 62 50
40 39 -53 -27 -73 -56 -99 -150 -24 -88 -25 -96 -10 -119 13 -20 14 -31 5 -69
-7 -24 -9 -48 -6 -54 4 -5 6 -82 6 -170 0 -142 2 -164 20 -200 12 -21 25 -42
31 -45 5 -3 6 -20 2 -36 -5 -25 -3 -30 9 -25 20 8 35 -12 31 -41 -3 -16 0 -21
8 -16 8 4 10 3 5 -2 -5 -5 -13 -9 -18 -9 -10 0 -11 -12 -3 -37 3 -10 10 -18
15 -18 6 0 8 -8 4 -19 -3 -10 -2 -27 2 -37 6 -16 8 -15 14 11 4 17 7 47 8 68
1 23 5 36 11 32 6 -4 8 -11 5 -16 -4 -5 1 -9 10 -9 11 0 15 -5 11 -15 -3 -8
-1 -15 4 -15 6 0 10 -4 10 -10 0 -5 -8 -6 -17 -3 -10 4 -4 -8 15 -26 32 -33
39 -67 17 -84 -6 -4 -3 -11 7 -17 10 -7 15 -17 11 -27 -4 -11 -3 -14 5 -9 7 4
12 1 12 -8 0 -8 3 -21 6 -30 4 -11 1 -16 -11 -16 -9 0 -13 5 -9 11 4 8 0 9
-15 4 -22 -7 -30 8 -10 20 6 4 8 13 5 21 -3 8 0 14 7 14 7 0 6 4 -3 10 -18 11
-22 50 -6 50 6 0 4 5 -4 10 -8 5 -12 10 -9 10 4 0 -5 13 -20 29 -33 36 -38 33
-15 -11 10 -18 19 -44 19 -58 1 -14 4 -36 8 -50 4 -14 -7 2 -23 35 -34 67 -41
55 -9 -15 25 -54 73 -184 83 -222 6 -25 4 -28 -19 -28 -14 0 -38 -11 -53 -25
-32 -30 -48 -31 -64 -5 -13 21 -38 27 -38 10 0 -5 4 -10 9 -10 4 0 25 -26 45
-59 20 -32 47 -67 59 -78 12 -11 40 -46 62 -77 61 -87 77 -107 82 -102 3 2
-18 33 -46 69 -28 36 -51 69 -51 74 0 19 82 63 116 63 19 0 34 3 34 8 -1 38
-75 54 -117 24 -52 -36 -68 -36 -98 4 l-27 36 33 28 c24 19 50 30 86 35 52 6
53 6 128 -51 42 -31 74 -58 71 -61 -2 -2 -20 0 -40 5 -20 6 -34 7 -31 2 3 -4
21 -11 40 -14 19 -4 35 -12 35 -18 0 -6 -13 -8 -37 -3 l-38 6 38 -32 c39 -32
55 -61 64 -112 4 -26 2 -28 -18 -22 -19 6 -21 4 -17 -20 3 -16 0 -35 -8 -44
-7 -9 -22 -27 -33 -41 l-19 -25 -7 28 c-4 15 -13 27 -21 27 -9 0 -14 11 -14
28 0 21 -2 24 -10 12 -5 -8 -10 -18 -10 -21 0 -8 120 -159 126 -159 3 0 2 5
-1 10 -3 6 -3 10 2 10 4 0 31 22 60 48 41 38 51 52 46 70 -3 12 -9 22 -14 22
-5 0 -9 11 -9 24 0 14 -5 37 -10 52 -6 15 -9 28 -8 30 9 8 97 -19 102 -32 3
-8 2 -13 -3 -10 -5 3 -8 -6 -8 -21 0 -22 1 -23 9 -9 9 16 12 14 31 -16 12 -18
20 -39 19 -45 -2 -7 2 -13 9 -13 7 0 9 -9 6 -21 -3 -12 -3 -18 1 -14 6 6 36
-46 82 -145 12 -24 25 -47 30 -50 17 -11 17 -90 0 -90 -5 0 -10 9 -10 19 0 11
-5 23 -12 27 -8 5 -9 2 -5 -10 4 -10 10 -29 13 -42 5 -20 9 -22 20 -13 23 19
17 -14 -7 -45 -11 -15 -18 -34 -15 -42 3 -9 -12 -2 -34 16 -22 17 -40 35 -40
40 0 5 -9 12 -21 15 -16 5 -30 -3 -60 -32 -52 -51 -51 -77 5 -147 40 -48 43
-55 25 -59 -10 -3 -19 -1 -19 4 0 5 -7 9 -16 9 -8 0 -12 -4 -9 -10 10 -16 -1
-11 -16 7 -12 14 -12 16 0 8 11 -6 13 -4 7 10 -5 15 -4 16 9 5 12 -10 15 -10
15 3 0 23 -28 28 -42 8 -35 -48 -45 -45 -167 57 -64 53 -135 115 -159 137 -35
33 -98 62 -110 50 -2 -1 28 -34 65 -72 98 -101 123 -136 116 -161 -4 -17 -1
-22 15 -22 12 0 24 -5 28 -11 5 -8 9 -8 14 1 5 8 18 10 34 6 15 -4 24 -11 21
-16 -3 -6 2 -10 12 -10 15 0 16 -2 3 -10 -10 -6 -16 -6 -18 0 -2 6 -9 7 -14 4
-6 -4 -8 -2 -4 4 3 6 2 13 -3 16 -17 11 -21 -10 -6 -30 8 -10 15 -27 15 -37 0
-16 -5 -18 -33 -12 -17 4 -37 12 -44 17 -7 5 -18 8 -25 5 -17 -6 36 -28 86
-36 35 -5 41 -10 53 -48 16 -48 30 -55 85 -47 44 8 57 26 37 51 -8 9 -9 14 -3
10 11 -6 96 42 108 62 4 7 26 -4 57 -29 28 -22 54 -40 58 -40 4 0 30 24 58 54
36 38 54 51 62 43 7 -7 18 -7 38 1 25 11 26 11 10 -2 -10 -8 -17 -23 -15 -34
3 -21 228 -260 228 -243 0 5 -11 18 -25 29 -14 11 -34 40 -45 63 -11 26 -20
36 -20 25 0 -20 0 -20 -15 0 -8 10 -15 30 -15 44 -1 23 -2 23 -10 5 -7 -17 -9
-17 -9 -2 -1 9 -6 17 -12 17 -13 0 -49 38 -49 52 0 5 6 6 13 2 7 -5 6 0 -3 11
-9 11 -10 16 -2 11 8 -5 12 0 12 13 0 13 5 18 13 15 7 -2 13 4 14 16 2 20 -11
27 -21 12 -3 -5 -18 -9 -33 -10 -26 0 -28 3 -28 38 -1 21 2 37 5 35 3 -2 7 5
7 16 1 11 -2 17 -6 14 -5 -2 -7 17 -5 43 4 46 4 46 -10 -13 -7 -33 -16 -77
-20 -97 -8 -45 -15 -46 -48 -13 -18 18 -24 32 -20 50 3 20 1 24 -12 19 -9 -3
-13 -10 -10 -15 3 -5 0 -9 -5 -9 -20 0 -11 20 14 32 14 6 25 17 25 23 0 7 6
18 14 24 8 6 17 32 21 56 3 25 10 45 15 45 4 0 30 -24 56 -54 35 -38 59 -78
84 -142 19 -49 39 -98 46 -109 17 -28 102 -246 106 -271 2 -15 -17 -37 -80
-87 -45 -37 -86 -67 -91 -67 -4 0 -18 11 -31 25 -13 14 -27 25 -32 25 -9 0
-62 36 -86 58 -7 6 -23 17 -35 24 -26 14 -124 85 -152 112 -11 10 -34 29 -51
42 l-32 25 -78 -18 c-44 -9 -90 -17 -104 -16 -24 0 -186 42 -223 58 -14 6 -17
2 -17 -24 0 -35 22 -95 39 -105 7 -5 9 3 4 25 -10 50 16 32 38 -26 32 -83 22
-93 -38 -38 l-51 48 -17 100 c-15 93 -15 100 1 112 9 7 22 14 28 16 6 3 7 8 2
13 -5 5 -11 4 -13 -3 -5 -14 -29 -17 -37 -5 -2 4 -1 13 3 20 6 10 17 9 50 -3
55 -19 56 -19 34 3 -10 10 -40 27 -68 37 -49 18 -105 66 -105 89 0 6 5 4 10
-4 5 -8 10 -10 10 -4 0 6 7 11 15 11 8 0 11 -5 8 -10 -4 -6 1 -8 11 -4 10 4
19 1 22 -8 4 -8 10 -12 15 -9 5 3 6 -2 3 -10 -4 -10 -1 -16 9 -16 13 0 33 28
25 35 -11 9 -105 55 -113 55 -16 0 -104 47 -99 53 3 3 1 20 -5 38 -10 34 -10
34 -8 -11 2 -43 4 -46 52 -72 28 -15 45 -28 39 -28 -18 0 1 -72 22 -87 10 -7
21 -13 25 -13 12 0 27 -58 39 -150 15 -122 26 -164 47 -175 9 -5 40 -31 67
-56 52 -49 57 -78 14 -80 -19 -1 -18 -3 7 -9 17 -4 22 -8 13 -9 -10 0 -18 -8
-18 -16 0 -15 17 -19 154 -35 100 -12 80 -21 189 83 33 31 65 56 70 54 12 -4
4 -22 -10 -21 -6 1 -9 -4 -7 -10 3 -7 -6 -21 -18 -33 -13 -11 -34 -35 -48 -53
-14 -18 -30 -38 -37 -45 -7 -7 -15 -37 -18 -66 -3 -30 -8 -73 -11 -97 -5 -37
-3 -42 15 -42 16 0 21 9 26 48 3 26 8 64 11 84 6 41 61 109 157 196 60 54 64
57 85 44 9 -6 6 -18 -16 -48 -66 -93 -134 -253 -131 -311 1 -10 7 2 15 27 l14
45 -4 -42 -4 -43 51 1 52 0 84 105 c46 58 86 103 89 100 2 -3 -13 -26 -34 -52
-59 -70 -114 -142 -114 -148 0 -15 37 -3 50 15 30 44 142 161 148 155 3 -3 -6
-14 -19 -25 -13 -11 -20 -23 -16 -28 5 -4 15 1 23 11 7 11 16 17 19 15 2 -3
-13 -24 -35 -48 -76 -81 -105 -138 -37 -74 19 19 26 22 22 10 -4 -9 -11 -17
-16 -17 -5 0 -9 -4 -9 -10 0 -5 25 -10 55 -10 52 0 58 3 89 38 19 20 46 51 61
67 15 17 4 0 -24 -37 -38 -51 -47 -68 -34 -68 9 0 28 10 42 23 l26 22 -19 -23
-20 -23 31 3 c25 2 29 6 25 23 -3 11 -1 16 4 12 4 -4 16 18 25 50 9 32 27 90
38 128 33 107 35 113 22 95 -10 -13 -11 -13 -10 0 0 17 28 70 29 55 0 -5 9 6
20 25 10 19 17 43 14 53 -3 9 -1 17 4 17 11 0 38 60 34 75 -2 6 0 7 4 2 10
-10 57 71 48 85 -4 6 -3 8 3 5 10 -6 58 82 48 91 -3 3 -5 1 -5 -4 0 -6 -7 -19
-15 -30 -13 -17 -13 -16 -3 12 25 70 -19 114 -95 93 -23 -6 -48 -16 -54 -21
-8 -7 -13 -7 -13 -1 0 6 21 18 46 29 25 10 41 20 35 22 -13 4 -91 -35 -118
-60 -12 -11 -26 -17 -32 -13 -18 11 -13 65 7 73 39 16 82 47 82 60 0 10 -4 10
-16 -2 -16 -16 -34 -13 -34 5 0 6 5 7 10 4 6 -3 10 1 10 9 0 8 9 18 21 21 12
4 30 16 42 28 24 24 34 10 17 -24 -22 -40 5 -45 49 -10 23 18 41 36 41 41 0 5
10 12 23 16 23 7 37 22 37 39 0 7 -3 7 -8 0 -4 -5 -14 -16 -23 -23 -16 -12
-16 -10 -1 23 16 35 31 46 33 23 0 -7 5 -2 10 11 5 13 12 22 14 19 3 -3 1 -17
-4 -31 -8 -22 -7 -24 9 -20 10 3 21 12 25 20 5 14 3 14 -11 2 -15 -12 -16 -11
-9 11 10 31 28 49 55 53 11 2 29 11 40 19 10 9 20 15 22 12 3 -2 17 10 33 26
32 34 47 38 39 12 -3 -9 2 -5 11 10 8 15 24 32 35 38 16 9 20 8 20 -7 1 -16 2
-16 12 2 6 11 20 28 31 39 16 15 21 16 28 5 7 -11 9 -10 9 4 0 9 5 17 11 17 5
0 7 -6 4 -12 -4 -7 1 -4 9 6 9 11 26 21 37 23 19 3 20 1 9 -12 -7 -9 -15 -14
-17 -11 -2 2 -29 -44 -60 -102 -30 -59 -70 -129 -88 -157 -18 -27 -46 -77 -62
-110 -16 -34 -38 -74 -48 -90 -35 -52 -45 -69 -55 -94 -6 -13 -19 -35 -29 -50
-10 -14 -31 -51 -47 -81 -29 -56 -34 -64 -100 -163 -80 -121 -75 -102 -64
-223 16 -182 19 -194 41 -194 16 0 19 6 18 38 -2 20 -6 42 -11 48 -5 7 -7 24
-4 38 3 14 0 28 -5 31 -14 9 -11 27 4 19 6 -4 3 3 -8 16 -14 16 -16 22 -5 18
8 -2 22 -17 30 -31 12 -22 13 -30 2 -47 -6 -11 -12 -25 -12 -32 1 -27 31 45
36 86 5 34 2 45 -11 49 -11 5 -14 3 -8 -6 4 -6 9 -20 10 -31 3 -16 1 -17 -12
-6 -8 7 -12 16 -9 21 3 5 0 8 -7 7 -6 -2 -14 3 -17 11 -3 10 0 11 9 5 11 -6
10 -3 -1 11 -8 10 -10 16 -3 12 6 -4 13 -3 15 3 2 6 15 4 32 -5 15 -8 32 -15
37 -15 5 0 19 -9 32 -20 34 -31 44 -41 151 -134 54 -47 107 -86 117 -86 13 0
-8 25 -67 78 -130 116 -214 199 -214 212 0 7 6 5 16 -4 21 -22 27 -20 14 4 -6
11 -8 25 -5 30 3 6 3 16 -1 22 -6 9 -10 6 -14 -10 l-5 -22 -13 21 c-8 12 -9
18 -4 15 6 -3 12 1 16 9 3 9 12 12 23 9 13 -4 15 -3 5 4 -11 7 -11 10 2 15 9
4 16 16 16 27 0 13 -4 18 -11 15 -6 -4 -8 -14 -4 -22 4 -13 3 -14 -10 -3 -11
9 -12 16 -5 25 8 9 8 15 0 20 -5 3 -10 5 -11 3 -6 -25 -6 -39 2 -44 5 -3 9
-10 9 -16 0 -6 -7 -5 -17 3 -16 13 -17 12 -5 -3 9 -11 10 -18 2 -23 -12 -7
-21 13 -16 35 2 8 7 30 11 48 6 24 11 30 20 22 19 -16 27 2 8 22 -18 20 -5 25
17 5 8 -6 6 -2 -4 11 -11 12 -15 22 -9 22 10 0 34 -24 48 -49 6 -11 4 -13 -11
-7 -10 4 -15 4 -11 0 4 -4 2 -13 -4 -21 -9 -10 -8 -13 5 -13 10 0 15 4 12 9
-3 5 1 12 9 15 13 5 14 9 3 28 -7 13 -12 28 -13 33 0 6 -6 10 -12 10 -7 0 -13
3 -13 8 0 4 0 12 0 19 0 6 11 1 25 -12 13 -12 23 -26 20 -29 -2 -4 1 -13 6
-21 7 -11 8 -7 5 13 -3 15 -15 36 -28 47 -13 10 -20 22 -16 26 4 4 14 2 21 -4
8 -7 16 -10 19 -7 3 3 11 -1 18 -10 9 -11 9 -15 1 -15 -7 0 -9 -4 -6 -10 9
-15 24 -12 21 4 -3 20 -27 47 -36 41 -14 -8 -22 13 -12 31 7 13 13 10 38 -18
30 -33 64 -48 64 -28 0 6 5 8 12 4 7 -5 8 -3 3 6 -4 7 -3 15 3 19 7 4 3 12
-11 20 -20 13 -21 13 -8 -2 9 -12 10 -17 2 -17 -7 0 -9 -4 -6 -10 15 -25 -24
-7 -55 25 -22 23 -29 35 -19 35 8 0 21 -6 29 -13 8 -6 4 0 -9 15 -27 31 -19
38 12 10 20 -17 20 -17 2 11 -14 22 -14 27 -3 27 8 0 20 -6 28 -12 8 -7 6 -3
-4 10 -22 26 -14 41 11 21 15 -11 15 -10 -1 9 -20 23 -9 31 13 9 11 -10 11 -8
2 11 -10 18 -9 25 2 37 8 8 18 11 22 7 4 -4 6 0 4 8 -1 8 1 23 6 33 7 17 8 17
28 0 20 -18 20 -18 3 9 -20 30 -6 48 22 26 15 -11 15 -11 5 3 -16 20 -5 32 16
17 13 -10 14 -10 4 2 -15 17 -17 44 -3 35 6 -3 10 -1 10 6 0 7 8 5 20 -6 11
-10 23 -15 26 -12 9 9 66 -22 60 -32 -3 -5 3 -16 14 -26 24 -21 27 -13 4 9
-25 26 8 20 79 -13 34 -16 102 -47 150 -70 81 -38 87 -42 72 -57 -12 -12 -25
-15 -53 -9 -91 17 -97 18 -86 5 7 -6 31 -16 55 -21 24 -6 80 -24 125 -41 74
-28 82 -33 94 -67 7 -20 16 -38 20 -41 4 -3 19 -30 35 -60 59 -116 59 -116 63
-97 2 10 -6 33 -17 53 -12 19 -23 49 -26 67 -4 18 -10 34 -16 35 -5 2 -7 8 -3
13 3 5 1 9 -4 9 -4 0 -8 15 -8 34 1 24 5 32 14 28 7 -2 11 -10 8 -17 -3 -8 4
-11 19 -9 13 1 26 -4 29 -13 3 -8 11 -11 18 -7 8 5 9 2 4 -11 -5 -14 -4 -16 7
-7 8 7 16 10 19 7 2 -3 5 2 5 10 0 8 -3 15 -7 15 -4 0 -33 21 -66 46 -32 26
-79 60 -103 75 -25 16 -39 29 -33 29 12 0 91 -51 123 -79 18 -15 128 -94 198
-143 37 -25 59 -34 70 -29 9 5 45 11 80 15 l64 6 -7 -79 c-4 -43 -13 -102 -21
-130 -7 -28 -11 -51 -8 -51 3 0 0 -6 -6 -14 -8 -10 -23 -13 -46 -9 -24 4 -51
-2 -86 -17 l-52 -22 -21 22 -21 22 25 -5 c14 -3 54 2 90 12 60 17 63 18 32 23
-18 2 -35 1 -38 -4 -3 -4 -11 -8 -17 -7 -9 0 -9 2 1 6 15 6 16 23 2 23 -6 0
-14 -10 -18 -21 -8 -21 -9 -21 -26 -3 -18 17 -17 18 15 30 22 7 40 8 52 2 14
-7 25 -1 52 27 19 19 35 45 35 58 -1 21 -1 22 -15 3 -8 -11 -15 -24 -15 -30 0
-5 -7 -1 -15 10 -8 10 -14 26 -14 34 0 9 6 5 14 -10 l15 -25 -6 29 c-5 19 -2
31 7 38 10 7 5 8 -16 3 -16 -3 -35 -6 -42 -7 -7 -1 -10 -5 -8 -9 3 -4 -2 -22
-10 -40 -13 -32 -14 -32 -15 -9 0 15 4 30 8 35 5 6 6 24 2 40 l-6 30 -19 -42
c-10 -24 -23 -43 -28 -43 -5 0 -6 -7 -3 -16 5 -12 1 -14 -17 -9 -12 3 -17 3
-12 -2 6 -4 11 -16 13 -26 2 -14 -2 -17 -25 -12 l-28 6 30 -15 c17 -8 24 -15
17 -15 -7 -1 -10 -5 -7 -11 3 -6 -5 -10 -19 -10 -14 0 -29 8 -35 17 -5 10 -12
15 -15 12 -4 -3 6 -23 21 -45 35 -50 38 -115 6 -159 -11 -16 -24 -47 -28 -67
l-6 -38 57 0 c43 0 66 6 90 22 36 25 91 111 100 158 5 20 16 36 35 45 27 14
49 62 49 106 0 9 9 51 20 94 11 42 19 94 18 115 -1 42 36 144 64 172 10 10 18
27 18 38 0 11 11 48 25 82 14 34 25 72 25 85 0 13 6 23 15 23 8 0 19 16 25 39
5 21 17 41 25 44 8 4 26 24 40 46 27 44 33 98 13 134 -15 28 -17 55 -7 90 12
44 -8 31 -31 -20 -11 -25 -23 -43 -26 -40 -3 3 1 18 9 34 58 107 60 115 48
242 -10 100 -10 124 3 157 17 46 27 136 15 128 -5 -3 -9 -17 -9 -32 0 -29 -36
-173 -69 -281 -11 -36 -18 -67 -16 -69 5 -5 6 -2 22 52 13 43 31 43 39 0 9
-47 -6 -110 -46 -199 -24 -53 -33 -66 -41 -55 -7 13 -10 13 -18 1 -6 -9 -11
-10 -15 -2 -4 5 1 18 11 28 12 12 18 32 17 58 -1 62 -3 75 -11 74 -20 -3 -34
2 -28 11 8 13 -15 13 -35 0 -12 -8 -12 -10 5 -10 15 0 16 -3 7 -9 -7 -4 -14
-22 -14 -39 -1 -18 -5 -32 -10 -32 -4 0 -8 -5 -8 -12 0 -9 3 -9 12 0 20 20 24
14 25 -35 l2 -47 -23 29 c-16 20 -23 23 -23 12 0 -9 5 -13 11 -10 6 3 5 0 -2
-8 -11 -12 -17 -11 -40 1 -33 19 -39 57 -17 100 9 18 15 34 12 36 -2 2 -15
-18 -27 -45 -32 -67 -33 -67 -175 93 -93 105 -78 101 27 -6 52 -54 100 -98
106 -98 7 0 25 21 41 46 16 26 30 41 32 35 2 -6 10 -1 18 11 13 21 13 22 -2 9
-23 -18 -21 -11 9 43 34 61 24 59 -17 -4 -17 -27 -36 -47 -40 -44 -5 3 -9 -1
-9 -9 0 -7 -11 -19 -24 -25 l-24 -11 5 77 c3 42 11 84 18 92 11 14 55 113 55
124 0 3 -5 6 -12 6 -6 0 -8 -3 -5 -6 4 -4 -3 -24 -14 -44 -16 -28 -26 -36 -40
-33 -11 3 -19 0 -19 -6 0 -7 -6 -9 -12 -5 -7 4 -10 4 -6 0 7 -8 -9 -64 -25
-84 -8 -10 -13 -10 -25 0 -9 7 -13 8 -10 3 4 -6 3 -17 -3 -25 -7 -12 -9 -9 -9
10 0 18 -3 21 -9 12 -6 -10 -14 -5 -30 21 -25 40 -27 54 -6 37 8 -7 15 -9 16
-4 1 5 5 -2 9 -16 l8 -25 1 28 c1 15 6 27 11 27 6 0 10 11 10 24 0 28 16 43
23 24 3 -7 9 3 13 22 7 34 8 34 15 10 7 -23 7 -24 8 -3 1 29 28 20 34 -10 4
-20 4 -20 6 2 0 14 9 34 19 45 l17 21 -23 -20 c-18 -15 -25 -16 -31 -6 -6 10
-13 10 -28 2 -11 -5 -24 -7 -28 -3 -3 4 -5 2 -3 -3 4 -13 -27 -57 -35 -49 -3
3 -3 -3 0 -14 6 -23 -31 -50 -42 -32 -3 5 -3 10 2 10 4 0 2 4 -5 8 -7 5 -16
26 -19 47 -5 30 -3 36 7 30 10 -6 11 -2 6 19 -3 14 -2 36 4 47 6 11 10 32 8
47 -3 24 -8 19 -57 -53 -49 -72 -52 -82 -45 -114 5 -20 8 -74 8 -120 0 -83 -1
-84 -36 -116 -24 -22 -38 -45 -42 -71 -4 -22 -16 -62 -27 -91 -17 -42 -18 -55
-9 -74 10 -18 10 -23 -2 -30 -8 -4 -23 -26 -33 -49 -10 -22 -21 -40 -25 -40
-17 0 -240 321 -240 345 0 8 -8 22 -19 32 -10 10 -23 33 -30 52 -18 55 -11 60
9 6 19 -50 19 -50 13 -10 -3 22 -11 55 -18 74 -10 30 -8 40 19 92 l30 59 -19
53 c-10 28 -35 88 -55 132 -61 131 -63 140 -49 163 10 16 10 34 2 79 -7 37 -7
64 -1 76 5 10 7 23 4 30 -2 7 -5 4 -5 -5 -1 -10 -8 -18 -16 -18 -8 0 -15 -4
-15 -9 0 -5 -13 -14 -29 -21 -16 -6 -39 -22 -51 -35 l-21 -23 42 0 c28 -1 49
-8 65 -23 30 -28 17 -49 -53 -85 -29 -14 -53 -31 -53 -36 0 -5 -15 0 -34 11
-42 26 -59 27 -26 1 14 -11 20 -20 14 -20 -13 0 -43 31 -43 45 0 5 -16 15 -37
22 -21 7 -46 22 -56 33 -16 17 -32 20 -102 20 -78 0 -86 -2 -122 -31 -21 -17
-58 -58 -81 -92 -44 -63 -58 -101 -23 -58 11 13 20 20 20 16 0 -11 -37 -55
-42 -49 -5 5 -48 -87 -48 -103 0 -4 -18 -32 -40 -61 -22 -29 -40 -57 -40 -62
0 -8 -130 -118 -194 -164 -14 -10 -24 -21 -22 -24 3 -2 20 8 38 22 18 15 44
35 56 44 61 44 128 112 159 160 19 30 37 51 40 48 3 -3 -11 -29 -30 -59 -46
-69 -172 -186 -233 -216 -26 -13 -77 -44 -113 -69 -51 -34 -59 -38 -36 -15 17
16 43 38 58 48 15 10 25 20 23 23 -6 5 -64 -39 -154 -117 -34 -29 -65 -51 -69
-47 -3 3 0 6 7 6 16 0 3 15 -13 15 -7 1 -11 6 -9 13 1 7 -4 12 -11 12 -7 0
-24 19 -37 41 -12 23 -30 50 -39 60 -9 11 -24 28 -33 39 -10 11 -18 24 -18 29
0 6 -20 13 -45 17 -54 8 -75 25 -75 63 0 28 26 61 48 61 6 0 26 9 44 20 37 23
26 27 -12 5 -33 -19 -60 -19 -60 1 0 8 4 13 9 9 5 -3 12 -1 16 5 3 5 13 10 22
10 20 0 128 66 154 93 l19 21 0 -21 c0 -13 -18 -36 -42 -58 -24 -20 -33 -32
-21 -25 27 12 133 116 133 129 0 4 18 20 39 34 29 19 55 27 103 30 l63 3 -76
2 c-65 2 -79 -1 -94 -18 -23 -25 -35 -26 -35 -2 0 28 47 45 122 43 37 -1 77 3
88 9 16 8 20 8 20 -4 0 -8 -6 -17 -12 -20 -7 -3 5 -3 26 0 22 3 49 13 60 21
16 12 17 14 4 10 -30 -11 -20 17 15 41 18 12 37 22 42 22 8 0 13 4 68 55 16
14 34 24 40 21 9 -3 9 -5 0 -5 -7 -1 -10 -8 -6 -18 5 -13 2 -15 -11 -10 -9 4
-15 3 -11 -2 3 -5 1 -12 -5 -16 -5 -3 -10 -11 -10 -16 0 -6 24 15 53 46 l53
57 94 4 c92 4 220 21 229 30 13 13 -13 13 -70 0 -74 -16 -269 -27 -269 -14 0
4 8 8 18 8 59 1 238 22 307 35 142 29 210 62 269 132 22 26 26 39 21 63 -5 23
-3 30 9 30 22 0 30 -38 15 -69 -7 -14 -26 -41 -43 -58 -16 -18 -25 -33 -19
-33 16 0 70 56 78 80 10 32 21 23 36 -27 7 -27 15 -41 17 -31 2 9 -4 33 -12
53 -9 21 -16 46 -16 56 0 12 -15 26 -39 39 -35 17 -40 25 -45 62 -7 52 -26
233 -26 247 0 5 16 4 38 -4 76 -27 141 -45 164 -44 13 0 -15 11 -62 24 -130
35 -147 44 -155 79 -4 17 -8 69 -11 116 -4 95 -13 110 -67 112 -20 1 -38 7
-41 13 -6 17 29 44 51 39 10 -3 27 1 37 9 19 14 18 16 -2 113 -35 158 -52 244
-64 317 -8 53 -14 67 -25 63 -8 -4 -1 12 16 33 40 51 53 115 34 168 -8 21 -21
58 -28 83 -7 25 -31 107 -54 182 -23 75 -41 142 -41 148 0 16 -38 98 -49 104
-4 3 -11 3 -14 0z m-61 -129 c8 -7 4 -15 -12 -27 -25 -20 -34 -22 -34 -9 0 5
10 12 23 16 18 6 14 9 -28 20 l-50 14 45 -2 c25 -1 50 -6 56 -12z m-96 -19 c0
-2 -8 -10 -17 -17 -16 -13 -17 -12 -4 4 13 16 21 21 21 13z m110 -26 l-25 -20
30 10 30 10 -25 -21 c-15 -13 -26 -17 -28 -9 -3 7 -10 5 -23 -6 -10 -9 -19
-14 -19 -10 0 11 63 66 75 66 5 0 -1 -9 -15 -20z m-185 -100 c0 -68 -3 -103
-9 -93 -15 28 -10 203 7 203 1 0 2 -49 2 -110z m-643 68 c-5 -20 -3 -21 10
-10 13 11 16 8 20 -16 2 -16 -1 -29 -6 -29 -6 0 -19 -4 -28 -8 -14 -6 -18 -2
-18 16 0 19 2 21 10 9 7 -12 11 -12 20 -2 5 6 7 10 3 7 -9 -7 -35 33 -28 45
11 19 23 10 17 -12z m744 3 c-12 -13 -13 -20 -5 -23 6 -2 0 -9 -14 -15 -21
-10 -28 -9 -38 3 -11 13 -9 14 16 8 21 -5 26 -4 20 5 -4 7 1 18 11 26 26 20
30 18 10 -4z m-46 -58 c22 -11 23 -13 5 -13 -30 0 -45 19 -44 55 l1 30 7 -30
c3 -17 16 -35 31 -42z m167 7 c-2 -11 -10 -26 -17 -33 -12 -10 -12 -9 -1 6 22
28 -5 20 -28 -9 -12 -15 -21 -22 -21 -16 0 14 49 72 61 72 5 0 7 -9 6 -20z
m-107 -2 c0 -7 -10 -24 -21 -38 -16 -20 -18 -21 -10 -4 6 12 7 24 3 28 -3 4 0
11 8 16 19 12 20 12 20 -2z m-705 -28 c-3 -5 6 -27 20 -49 14 -23 24 -44 23
-48 -2 -5 8 -26 21 -48 14 -22 23 -48 22 -59 -2 -13 1 -16 11 -10 11 6 11 5 0
-9 -8 -9 -10 -22 -6 -28 5 -8 3 -9 -6 -4 -9 6 -11 4 -5 -5 5 -8 4 -11 -3 -6
-6 4 -8 14 -5 24 6 15 5 16 -13 2 -18 -14 -18 -14 -5 3 7 9 10 17 6 17 -5 0
-1 8 8 18 19 21 11 38 -10 21 -10 -9 -13 -6 -15 12 -2 38 -3 43 -16 67 -7 12
-9 22 -5 22 4 0 -1 6 -11 13 -9 7 -16 19 -14 27 2 8 -1 14 -7 13 -5 0 -17 6
-25 15 -13 14 -12 15 3 9 9 -3 17 -2 17 3 0 6 5 10 11 10 5 0 8 -4 4 -10z
m890 -35 c4 -22 7 -50 8 -62 1 -11 5 -19 10 -16 4 2 8 1 8 -4 1 -4 3 -17 5
-28 2 -11 6 -29 8 -40 3 -21 22 -71 33 -88 4 -6 1 -7 -6 -2 -9 5 -8 -1 2 -21
27 -54 28 -70 6 -98 -16 -20 -24 -24 -34 -16 -10 8 -15 8 -21 -1 -5 -8 -3 -10
7 -4 8 5 11 4 6 -1 -5 -5 -13 -10 -18 -10 -5 -1 -10 -2 -11 -4 -10 -7 -37 -6
-32 1 3 5 9 7 13 5 4 -3 7 4 8 14 2 19 1 19 -20 -1 l-22 -20 -6 43 c-8 63 -31
201 -35 216 -3 9 -12 11 -26 6 -13 -3 -21 -5 -18 -3 3 2 15 13 28 24 23 19 23
19 16 -1 -5 -13 -1 -11 14 8 12 14 22 32 21 40 0 7 -5 2 -10 -11 -5 -13 -12
-22 -15 -19 -7 8 17 58 28 58 5 0 6 5 3 10 -3 6 -1 10 4 10 6 0 11 -12 11 -26
0 -22 2 -25 15 -14 8 7 15 18 15 24 0 6 -5 4 -10 -4 -8 -13 -10 -13 -10 2 0 9
5 20 11 23 6 5 4 12 -8 21 -15 12 -16 15 -3 23 18 12 18 13 25 -34z m-945 19
c0 -8 -5 -12 -10 -9 -6 4 -8 11 -5 16 9 14 15 11 15 -7z m710 6 c0 -5 -9 -10
-20 -10 -11 0 -20 5 -20 10 0 6 9 10 20 10 11 0 20 -4 20 -10z m165 -10 c-3
-5 -11 -10 -16 -10 -6 0 -7 5 -4 10 3 6 11 10 16 10 6 0 7 -4 4 -10z m-851
-26 c3 -8 2 -12 -4 -9 -6 3 -10 10 -10 16 0 14 7 11 14 -7z m676 13 c0 -2 -10
-12 -22 -23 l-23 -19 19 23 c18 21 26 27 26 19z m14 -22 c-4 -9 -16 -21 -28
-27 -19 -10 -19 -9 3 16 28 30 33 32 25 11z m132 0 c-11 -8 -25 -15 -30 -15
-6 0 -2 7 8 15 11 8 25 15 30 15 6 0 2 -7 -8 -15z m-896 -3 c0 -4 -9 -8 -19
-8 -11 0 -17 4 -15 8 3 4 12 8 20 8 8 0 14 -4 14 -8z m-53 -8 c-3 -3 -12 -4
-19 -1 -8 3 -5 6 6 6 11 1 17 -2 13 -5z m-46 -94 c5 -25 12 -54 14 -65 3 -11
-4 -2 -15 20 -12 25 -19 59 -18 90 0 28 2 39 5 25 2 -14 8 -45 14 -70z m1009
85 c0 -5 -68 -35 -79 -35 -3 0 8 9 24 20 28 19 55 26 55 15z m-943 -11 c-3 -3
-12 -4 -19 -1 -8 3 -5 6 6 6 11 1 17 -2 13 -5z m819 -32 c-18 -16 -18 -16 -6
6 6 13 14 21 18 18 3 -4 -2 -14 -12 -24z m-793 1 c-7 -2 -21 -2 -30 0 -10 3
-4 5 12 5 17 0 24 -2 18 -5z m892 -3 c-11 -5 -27 -9 -35 -9 -13 -1 -13 0 0 9
8 5 24 9 35 9 l20 0 -20 -9z m-815 -14 c0 -3 -4 -8 -10 -11 -5 -3 -10 -1 -10
4 0 6 5 11 10 11 6 0 10 -2 10 -4z m760 0 c0 -2 -7 -7 -16 -10 -8 -3 -12 -2
-9 4 6 10 25 14 25 6z m-770 -41 c-7 -8 -17 -15 -22 -15 -6 0 -5 7 2 15 7 8
17 15 22 15 6 0 5 -7 -2 -15z m183 2 c3 -8 2 -19 -3 -26 -5 -10 -9 -8 -14 4
-3 9 -6 21 -6 26 0 14 17 11 23 -4z m-273 -22 c-7 -8 -17 -15 -22 -15 -6 0 -5
7 2 15 7 8 17 15 22 15 6 0 5 -7 -2 -15z m21 -28 l-24 -22 19 27 c10 14 21 24
23 22 3 -3 -6 -15 -18 -27z m98 30 c-2 -1 -12 -9 -22 -16 -15 -12 -17 -12 -11
3 3 9 13 16 22 16 8 0 13 -1 11 -3z m761 -7 c-12 -7 -8 -10 15 -10 23 0 27 3
15 10 -13 8 -12 10 3 10 19 0 23 -15 6 -26 -8 -4 -8 -9 0 -17 16 -16 14 -23
-14 -35 -33 -15 -32 -15 -38 7 -3 15 1 21 17 24 17 3 15 5 -6 6 -39 2 -37 41
1 41 14 0 14 -2 1 -10z m-31 -73 c12 -70 13 -188 2 -227 -4 -14 -8 26 -8 90
-1 63 -6 134 -11 158 -6 23 -6 42 -2 42 4 0 13 -28 19 -63z m-580 -20 c-10
-18 -9 -19 10 -14 12 3 19 1 15 -4 -3 -5 0 -9 5 -9 6 0 10 -3 10 -7 -1 -5 0
-11 1 -15 1 -5 3 -14 4 -20 1 -7 7 -12 14 -10 7 1 12 -2 12 -8 0 -16 3 -24 14
-37 8 -9 14 -8 24 5 11 14 12 14 12 0 0 -17 -131 -149 -158 -159 -17 -6 -49
17 -38 28 3 3 1 12 -5 19 -6 8 -9 20 -6 28 3 8 2 16 -4 18 -6 2 -4 22 5 50 12
41 12 50 -1 67 -8 12 -20 21 -26 21 -7 0 -4 -5 6 -11 10 -6 17 -21 16 -37 -1
-21 -2 -22 -6 -7 -8 30 -23 45 -47 46 l-21 2 22 4 c12 2 28 19 38 39 11 24 22
34 33 31 9 -2 16 -7 15 -13 -1 -5 10 -10 23 -10 13 -1 24 2 24 7 0 5 -3 8 -7
8 -23 -4 -33 2 -26 14 4 6 8 15 9 20 1 4 2 10 3 14 0 3 10 -4 21 -17 15 -18
17 -26 9 -43z m-185 18 c-9 -14 -18 -25 -21 -25 -5 0 5 18 20 38 17 22 18 13
1 -13z m549 10 c-3 -9 -8 -14 -10 -11 -3 3 -2 9 2 15 9 16 15 13 8 -4z m286
-32 l-24 -14 25 5 25 5 -24 -18 -25 -19 25 -4 c22 -3 21 -4 -7 -9 -29 -5 -31
-4 -30 29 1 25 7 37 21 42 31 11 41 -1 14 -17z m-572 -45 c-3 -8 -6 -5 -6 6
-1 11 2 17 5 13 3 -3 4 -12 1 -19z m-272 -18 c-3 -5 -12 -10 -18 -10 -7 0 -6
4 3 10 19 12 23 12 15 0z m865 -10 c0 -5 -12 -10 -27 -9 l-28 1 25 8 c14 4 26
8 28 9 1 1 2 -3 2 -9z m-800 -44 c0 -3 -4 -8 -10 -11 -5 -3 -10 -1 -10 4 0 6
5 11 10 11 6 0 10 -2 10 -4z m800 -6 c0 -5 -12 -10 -27 -9 l-28 1 25 8 c14 4
26 8 28 9 1 1 2 -3 2 -9z m-830 -14 c0 -3 -4 -8 -10 -11 -5 -3 -10 -1 -10 4 0
6 5 11 10 11 6 0 10 -2 10 -4z m40 -10 c0 -3 -4 -8 -10 -11 -5 -3 -10 -1 -10
4 0 6 5 11 10 11 6 0 10 -2 10 -4z m780 -6 c-20 -13 -43 -13 -35 0 3 6 16 10
28 10 18 0 19 -2 7 -10z m-810 -14 c0 -3 -4 -8 -10 -11 -5 -3 -10 -1 -10 4 0
6 5 11 10 11 6 0 10 -2 10 -4z m20 -38 c-12 -11 -24 -18 -26 -15 -8 8 29 47
39 40 4 -3 -1 -14 -13 -25z m630 28 c0 -2 -8 -10 -17 -17 -16 -13 -17 -12 -4
4 13 16 21 21 21 13z m163 -3 c-7 -2 -21 -2 -30 0 -10 3 -4 5 12 5 17 0 24 -2
18 -5z m159 -21 c-10 -9 -13 -13 -6 -9 7 4 15 3 18 -2 5 -8 17 -99 19 -148 0
-7 4 -13 8 -13 4 0 6 -12 5 -27 -2 -16 -5 -28 -6 -28 -1 0 -3 -8 -5 -18 -2 -9
1 -15 6 -11 5 3 7 10 4 15 -4 5 -2 9 4 9 15 0 18 -52 4 -85 -7 -16 -17 -49
-23 -71 -11 -47 -26 -62 -60 -66 -23 -3 -25 1 -32 57 -6 45 -4 69 7 98 14 36
14 40 -5 68 -52 73 -147 1 -106 -79 23 -45 20 -92 -9 -124 -13 -16 -27 -28
-30 -28 -9 0 -5 118 6 146 14 38 5 68 -26 88 -24 16 -27 16 -56 -1 -49 -29
-51 -101 -3 -96 11 1 13 0 7 -3 -7 -3 -13 -20 -13 -37 0 -26 2 -29 11 -17 9
12 9 11 3 -5 -4 -11 -9 -34 -12 -52 l-4 -32 -44 54 c-25 30 -50 52 -57 49 -8
-3 -13 4 -13 20 0 14 4 22 8 20 5 -3 6 -10 3 -15 -4 -5 -1 -9 4 -9 6 0 10 11
9 25 -1 14 -7 24 -14 21 -13 -5 -13 48 0 61 5 5 6 2 1 -6 -5 -9 -4 -12 3 -7
16 10 3 36 -14 29 -10 -3 -12 0 -8 10 3 9 12 13 22 10 11 -3 9 1 -5 11 -19 14
-21 25 -21 89 1 74 19 124 40 111 6 -4 31 -6 55 -5 41 1 43 0 43 -28 0 -40 21
-54 72 -47 24 3 53 5 66 5 19 1 22 6 22 42 l0 42 41 -7 c28 -4 46 -2 61 8 28
20 44 10 20 -12z m-172 -12 c-36 -11 -52 -11 -45 0 3 6 21 10 38 9 31 -1 31
-1 7 -9z m-750 -20 c0 -5 -4 -10 -10 -10 -5 0 -10 5 -10 10 0 6 5 10 10 10 6
0 10 -4 10 -10z m725 -10 c3 -5 -3 -10 -15 -10 -12 0 -18 5 -15 10 3 6 10 10
15 10 5 0 12 -4 15 -10z m42 4 c-3 -3 -12 -4 -19 -1 -8 3 -5 6 6 6 11 1 17 -2
13 -5z m-797 -14 c0 -5 -4 -10 -10 -10 -5 0 -10 5 -10 10 0 6 5 10 10 10 6 0
10 -4 10 -10z m15 -30 c-10 -11 -21 -17 -24 -14 -3 3 3 12 13 20 28 20 32 17
11 -6z m20 -20 c-10 -11 -23 -20 -28 -20 -6 0 1 10 14 23 29 28 40 25 14 -3z
m25 -13 c0 -2 -10 -12 -22 -23 l-23 -19 19 23 c18 21 26 27 26 19z m10 -41 c0
-3 -4 -8 -10 -11 -5 -3 -10 -1 -10 4 0 6 5 11 10 11 6 0 10 -2 10 -4z m190
-65 c0 -6 -4 -13 -10 -16 -5 -3 -10 1 -10 9 0 9 5 16 10 16 6 0 10 -4 10 -9z
m608 -4 c9 -10 4 -13 -24 -13 -37 0 -56 -17 -46 -42 3 -10 1 -13 -6 -8 -17 10
-15 19 9 50 22 28 50 34 67 13z m-154 -13 c9 -4 21 -16 28 -28 10 -20 10 -20
-11 2 -35 36 -73 24 -73 -23 0 -19 -3 -23 -9 -14 -13 20 -11 27 11 49 21 21
29 23 54 14z m150 -126 c9 -51 20 -145 26 -208 5 -63 13 -126 16 -139 5 -18 4
-23 -7 -19 -9 3 -16 29 -21 79 -4 41 -14 103 -22 139 -26 116 -32 240 -12 240
2 0 11 -42 20 -92z m-141 -103 c21 -166 31 -353 17 -310 -9 26 -19 118 -45
410 -10 109 12 34 28 -100z m94 103 c-3 -8 -6 -5 -6 6 -1 11 2 17 5 13 3 -3 4
-12 1 -19z m-238 -40 c5 -14 5 -28 -2 -36 -7 -9 -5 -11 9 -6 15 6 17 4 7 -6
-15 -16 -36 -3 -30 20 4 14 1 17 -12 12 -13 -5 -14 -3 -3 10 10 13 10 17 0 21
-8 3 -6 6 5 6 10 1 21 -9 26 -21z m-336 -28 c-3 -11 -7 -20 -9 -20 -2 0 -4 9
-4 20 0 11 4 20 9 20 5 0 7 -9 4 -20z m-979 1 c4 -5 -3 -7 -14 -4 -23 6 -26
13 -6 13 8 0 17 -4 20 -9z m6 -27 c0 -2 -7 -4 -15 -4 -8 0 -15 4 -15 10 0 5 7
7 15 4 8 -4 15 -8 15 -10z m1420 12 c0 -3 -4 -8 -10 -11 -5 -3 -10 -1 -10 4 0
6 5 11 10 11 6 0 10 -2 10 -4z m-580 -51 c-15 -18 -6 -45 14 -45 15 0 26 -21
26 -50 0 -13 -5 -17 -19 -13 -14 3 -24 -3 -34 -23 l-14 -27 -7 38 c-8 40 -3
50 29 59 13 3 11 4 -6 2 -23 -2 -26 1 -25 28 1 18 10 38 21 48 22 18 34 5 15
-17z m714 8 c-2 -57 -2 -57 -26 -37 -13 10 -17 12 -10 4 17 -20 15 -28 -9 -41
-13 -7 -19 -7 -15 -1 3 6 2 13 -4 17 -17 10 -11 31 16 59 34 33 50 33 48 -1z
m-640 -69 c12 -57 30 -172 40 -264 1 -9 5 -21 9 -27 4 -6 3 -14 -2 -18 -5 -3
-8 -14 -6 -25 2 -11 0 -20 -6 -20 -5 0 -9 17 -9 38 0 20 -7 66 -16 102 -32
136 -49 308 -28 288 2 -2 10 -36 18 -74z m486 18 c0 -13 -4 -20 -10 -17 -6 4
-8 10 -5 15 3 4 -4 6 -15 3 -15 -4 -20 0 -20 14 0 11 3 22 6 26 12 12 44 -18
44 -41z m254 32 c4 -9 3 -26 0 -38 -7 -21 -7 -21 -15 -1 -11 28 -11 55 0 55 5
0 12 -7 15 -16z m-1238 -21 c19 -26 17 -42 -6 -40 -22 1 -28 17 -7 17 7 0 8 3
2 8 -12 8 -18 32 -9 32 4 0 13 -8 20 -17z m1364 -2 c0 -33 -51 -80 -92 -85
-54 -7 -54 4 2 30 50 23 68 41 30 29 -16 -5 -20 -2 -20 19 0 24 4 26 40 26 33
0 40 -3 40 -19z m-975 -231 c9 -74 18 -150 20 -167 2 -18 0 -35 -5 -38 -4 -3
-11 23 -15 58 -3 34 -11 86 -17 116 -18 95 -35 245 -29 261 8 23 29 -79 46
-230z m308 187 c-4 -6 -13 -1 -25 12 -10 13 -15 28 -11 34 4 6 13 1 25 -12 10
-13 15 -28 11 -34z m231 21 c9 -35 8 -37 -16 -30 -20 5 -21 3 -10 -10 7 -9 33
-19 57 -23 39 -5 45 -9 45 -31 0 -21 -5 -24 -32 -23 -27 0 -29 2 -13 8 16 7 9
12 -40 26 -33 10 -63 19 -67 22 -11 6 19 60 39 72 26 15 30 14 37 -11z m-931
-65 c-3 -18 -8 -33 -12 -33 -3 0 -6 15 -5 33 2 49 3 52 13 42 5 -6 7 -25 4
-42z m182 -7 c24 -23 35 -40 32 -50 -10 -26 -32 -18 -46 17 -8 17 -18 40 -22
50 -12 24 -7 22 36 -17z m1171 7 c-10 -10 -19 5 -10 18 6 11 8 11 12 0 2 -7 1
-15 -2 -18z m-201 -77 c-6 -77 -5 -86 14 -105 16 -16 26 -18 50 -11 21 6 31 5
34 -4 7 -17 -2 -28 -38 -47 -16 -9 -28 -22 -27 -30 2 -8 3 -39 3 -69 -1 -30
-2 -73 -2 -95 -1 -42 -51 -135 -72 -135 -7 0 -7 4 1 12 7 7 12 17 12 22 0 6
-9 -2 -20 -19 -25 -38 -25 -45 2 -45 23 0 81 57 72 71 -3 5 6 13 19 18 14 6
29 16 33 23 5 9 2 8 -11 -2 -17 -14 -18 -13 -12 2 3 9 1 18 -4 20 -6 2 3 18
20 35 28 29 30 30 36 12 4 -11 4 -40 0 -66 -9 -66 -9 -67 -20 -75 -6 -5 -5 -8
3 -8 8 0 10 -5 6 -12 -4 -8 -3 -10 2 -5 5 5 10 17 10 28 1 10 3 21 4 24 1 3 4
10 5 15 1 6 4 11 5 13 9 8 5 76 -6 98 -11 22 -11 28 2 41 13 13 13 15 0 15 -8
0 -13 -3 -11 -7 2 -3 -7 -19 -20 -36 -19 -23 -26 -26 -36 -17 -10 10 -9 17 9
35 11 13 21 26 21 31 1 4 3 6 5 5 2 -2 13 6 25 16 12 11 21 16 21 11 0 -4 7
-2 15 5 8 7 13 16 10 20 -3 5 -1 11 5 15 6 4 8 11 4 16 -4 6 -16 1 -30 -12
-13 -12 -21 -25 -19 -29 3 -4 -2 -13 -10 -20 -8 -7 -15 -9 -15 -5 0 4 -7 2
-15 -5 -8 -7 -12 -17 -8 -24 4 -7 1 -6 -7 1 -11 10 -10 17 6 35 l19 23 -22
-19 c-13 -11 -23 -15 -23 -11 0 5 10 20 23 34 l22 26 -22 -19 c-23 -19 -23
-19 -23 2 0 12 6 21 13 20 6 -2 11 3 10 10 -2 6 1 12 6 12 5 0 11 -6 14 -12 3
-9 12 -6 30 10 16 15 26 19 29 12 2 -8 8 -7 17 4 12 14 12 16 -4 10 -13 -5
-16 -4 -11 5 13 20 31 6 33 -25 1 -16 4 -46 6 -67 2 -21 -1 -41 -6 -44 -6 -4
-7 -1 -2 8 4 8 -6 1 -23 -15 -25 -23 -29 -33 -21 -47 9 -18 32 -21 56 -6 18
12 22 -16 4 -37 -15 -18 -15 -19 4 -12 l20 7 -20 -19 c-33 -32 -65 -72 -57
-72 4 0 18 12 31 25 13 14 27 25 32 25 13 0 11 -4 -12 -31 -12 -13 -26 -31
-33 -40 -15 -22 -92 -69 -100 -62 -3 4 1 14 9 23 14 16 14 18 0 24 -12 4 -19
0 -22 -14 -3 -11 -10 -20 -15 -20 -5 0 -6 6 -2 13 5 8 2 8 -9 -2 -9 -7 -17
-20 -17 -28 0 -11 4 -11 23 -2 21 11 21 10 5 -6 -22 -24 -107 -31 -131 -11
-11 8 -19 29 -20 49 -1 19 -5 33 -9 31 -12 -7 -18 13 -23 72 -3 32 -7 60 -10
62 -8 8 27 42 36 36 5 -3 6 2 3 10 -3 9 -12 12 -22 9 -11 -5 -14 -2 -9 10 4
10 2 14 -6 11 -22 -8 -19 44 2 56 33 17 51 2 52 -44 1 -41 3 -58 15 -131 7
-37 8 -38 15 -15 11 39 10 102 -1 95 -5 -3 -10 1 -10 10 0 9 4 14 9 11 10 -6
21 41 21 90 0 18 5 36 10 39 24 15 7 24 -20 10 -28 -15 -31 -14 -62 13 -30 28
-31 31 -19 61 8 17 18 31 23 31 5 0 4 -9 -2 -19 -18 -34 -12 -56 19 -68 36
-13 57 4 64 52 l4 30 8 -32 c4 -18 12 -33 18 -33 18 0 -3 65 -28 83 -21 15
-25 27 -25 67 0 47 1 49 33 53 17 2 34 5 36 5 2 1 0 -36 -4 -82z m-675 31 c0
-29 -41 -87 -62 -87 -16 0 -8 53 13 90 25 45 49 43 49 -3z m780 23 c0 -5 -5
-10 -11 -10 -5 0 -7 5 -4 10 3 6 8 10 11 10 2 0 4 -4 4 -10z m50 -4 c0 -8 -5
-18 -10 -21 -6 -4 -8 -11 -4 -16 3 -5 9 -7 13 -5 4 3 8 0 9 -7 0 -7 3 -21 7
-32 4 -14 -1 -24 -17 -34 -22 -13 -23 -13 -5 6 19 21 23 38 7 28 -5 -3 -11 -1
-11 4 -3 21 -4 26 -13 39 -4 8 -2 20 6 29 8 10 8 14 1 10 -6 -4 -14 -3 -18 3
-3 5 3 10 14 10 12 0 21 -6 21 -14z m58 -24 c2 -7 -2 -10 -12 -6 -9 3 -16 11
-16 16 0 13 23 5 28 -10z m-1825 -34 c-10 -22 -11 -21 -10 10 0 22 3 30 10 23
7 -7 7 -18 0 -33z m444 0 c-3 -7 -5 -2 -5 12 0 14 2 19 5 13 2 -7 2 -19 0 -25z
m580 1 c-16 -22 -16 -22 -14 -1 0 11 5 18 9 16 4 -3 8 0 8 7 0 7 3 10 6 6 3
-3 -1 -16 -9 -28z m698 21 c3 -5 1 -10 -4 -10 -6 0 -11 5 -11 10 0 6 2 10 4
10 3 0 8 -4 11 -10z m-312 -6 c-7 -3 -9 -12 -6 -20 4 -10 0 -12 -11 -8 -27 10
-17 35 13 33 10 0 11 -3 4 -5z m60 -11 c-7 -19 -22 -33 -36 -33 -5 0 -5 5 -2
10 3 6 2 10 -4 10 -6 0 -8 7 -5 15 4 8 17 15 30 15 18 0 22 -4 17 -17z m357
-3 c0 -5 -7 -7 -15 -4 -8 4 -15 8 -15 10 0 2 7 4 15 4 8 0 15 -4 15 -10z m-90
-31 c0 -52 -54 -77 -92 -42 -10 9 -18 23 -18 32 0 11 4 9 16 -7 21 -31 50 -28
68 7 9 16 12 31 9 35 -4 3 -1 6 5 6 7 0 12 -14 12 -31z m-969 -49 c5 0 15 11
21 25 16 35 28 31 28 -10 0 -19 0 -38 0 -42 1 -13 -40 -15 -55 -3 -16 13 -29
76 -18 93 5 7 9 -2 11 -25 2 -21 8 -38 13 -38z m436 64 c-3 -3 -2 -16 3 -28 4
-13 5 -29 0 -36 -10 -16 -2 -42 11 -34 12 7 11 0 -2 -30 -7 -14 -18 -27 -26
-30 -11 -5 -11 -1 2 16 8 13 15 27 15 33 0 5 -5 2 -11 -7 -12 -22 -26 -23 -26
-3 0 8 4 12 8 9 13 -8 21 16 10 29 -6 8 -6 18 -1 27 15 24 11 36 -5 14 -10
-13 -14 -15 -15 -5 0 14 28 51 38 51 3 0 3 -3 -1 -6z m619 -2 c7 -4 11 -27 10
-52 -2 -25 2 -49 8 -53 7 -6 6 -7 -3 -5 -14 4 -19 17 -25 69 -2 15 -6 32 -10
38 -8 12 3 14 20 3z m-406 -17 c0 -1 -8 -9 -17 -16 -11 -10 -14 -10 -9 -1 4 7
2 12 -4 12 -6 0 -9 4 -5 10 5 8 35 4 35 -5z m-41 -117 c1 -21 6 -38 12 -38 5
0 7 -5 3 -11 -13 -22 -23 8 -28 91 -4 65 -3 74 4 40 5 -25 9 -62 9 -82z m83
113 c-8 -4 -13 -12 -12 -17 1 -5 -3 -10 -10 -12 -13 -5 -9 20 5 30 6 4 15 8
20 8 6 0 4 -4 -3 -9z m-1408 -34 c7 -6 6 -7 -4 -4 -8 2 -16 12 -17 23 -2 13
-1 15 4 4 3 -8 11 -19 17 -23z m656 20 c0 -8 -9 -24 -20 -37 -12 -13 -18 -30
-16 -37 3 -7 0 -13 -7 -13 -7 0 2 -9 20 -21 26 -17 32 -28 38 -72 4 -28 14
-69 21 -91 8 -21 14 -44 14 -50 -1 -15 -39 35 -40 51 0 13 -31 84 -40 93 -3 3
-6 18 -7 35 -1 16 -7 31 -13 33 -17 6 -11 41 15 82 27 42 35 49 35 27z m221
-14 c-12 -20 -14 -14 -5 12 4 9 9 14 11 11 3 -2 0 -13 -6 -23z m856 -8 c0 -8
-12 -26 -27 -40 -23 -22 -27 -23 -27 -8 0 25 16 43 33 36 8 -3 14 -2 13 3 -2
12 0 24 4 24 2 0 4 -7 4 -15z m-666 -17 c1 -7 2 -21 2 -30 0 -10 4 -18 9 -18
5 0 6 -5 3 -10 -4 -6 -2 -17 5 -25 8 -10 8 -15 -1 -21 -8 -5 -9 -3 -4 6 6 9 4
11 -5 5 -10 -6 -9 -11 5 -21 10 -8 15 -20 12 -29 -4 -8 -7 -19 -7 -23 -1 -4
-9 -16 -18 -26 -17 -19 -16 -19 10 -2 l26 17 -2 -30 c-1 -17 3 -31 8 -31 6 0
3 -7 -7 -14 -15 -12 -16 -14 -2 -20 17 -6 21 -26 4 -26 -5 0 -7 6 -3 13 5 7 1
6 -10 -2 -17 -14 -17 -15 3 -22 11 -5 19 -16 18 -27 0 -12 -6 -18 -14 -15 -9
4 -11 0 -7 -11 3 -9 11 -13 16 -10 14 9 -1 -39 -16 -49 -6 -5 -2 -6 9 -3 19 5
21 2 17 -29 -3 -26 -9 -35 -23 -35 -10 0 -20 -4 -23 -9 -4 -5 3 -7 14 -4 12 3
20 0 20 -6 0 -7 -5 -9 -12 -5 -10 6 -10 5 -1 -7 15 -18 -9 -79 -31 -79 -8 0
-18 -4 -21 -10 -3 -6 1 -7 9 -4 35 14 13 -8 -26 -26 -36 -16 -38 -19 -13 -14
17 2 1 -7 -34 -21 -36 -14 -69 -24 -75 -21 -6 2 4 9 22 16 40 15 43 32 3 20
-23 -6 -28 -5 -27 7 1 8 9 19 17 24 11 8 9 9 -7 5 -14 -5 -21 -2 -21 9 0 8 4
15 8 15 4 0 10 7 13 16 3 8 2 12 -4 9 -6 -3 -10 -1 -10 6 0 7 10 9 25 6 17 -3
34 2 48 14 19 17 20 18 3 12 -19 -6 -19 -5 -4 16 9 13 14 30 11 37 -3 9 2 14
13 15 18 0 17 1 -1 9 -13 6 -15 9 -5 9 13 1 13 2 0 11 -11 7 -9 11 13 19 32
12 34 17 7 17 -11 0 -20 -4 -20 -9 0 -4 -4 -5 -10 -2 -16 10 -11 23 12 31 19
6 20 7 4 16 -16 9 -14 12 14 29 29 18 33 39 7 39 -7 0 -6 -4 3 -10 8 -5 12
-10 8 -10 -3 0 -13 -3 -21 -6 -12 -4 -14 0 -10 15 3 11 14 23 24 26 11 4 17
10 14 15 -3 5 3 13 12 19 10 6 13 11 6 11 -6 0 -19 -10 -27 -22 -9 -12 -18
-19 -21 -16 -8 8 42 58 51 50 5 -4 3 0 -4 9 -9 12 -9 18 1 28 9 10 7 10 -10 0
-16 -10 -19 -16 -10 -22 7 -5 1 -6 -15 -3 -28 6 -28 6 -28 -46 0 -29 -7 -66
-16 -83 -11 -22 -14 -46 -10 -89 7 -66 -10 -106 -44 -106 -28 0 -42 -34 -40
-93 3 -71 2 -77 -15 -77 -12 0 -15 14 -15 66 0 63 2 68 36 99 l36 33 -7 70
c-6 64 -5 71 13 81 19 10 37 52 34 81 0 8 -3 32 -7 53 -5 37 -5 37 29 37 19 0
38 5 42 12 12 18 22 88 13 88 -4 0 -7 20 -6 44 2 33 5 42 16 38 9 -3 12 -1 7
6 -4 7 -2 12 3 12 6 0 12 -6 12 -12z m-157 -34 c10 -27 6 -48 -14 -73 -24 -28
-45 -22 -54 15 -6 22 -2 31 21 50 34 28 39 29 47 8z m-470 -41 c16 -20 24 -33
18 -29 -7 4 -12 2 -12 -3 0 -6 6 -11 13 -12 9 0 9 -2 0 -6 -10 -3 -9 -9 3 -20
14 -14 14 -17 -1 -32 -13 -12 -19 -13 -22 -3 -3 6 -9 12 -15 12 -6 0 -6 -6 2
-15 12 -15 6 -35 -11 -35 -5 0 -9 7 -9 15 0 21 -23 19 -51 -4 -20 -16 -21 -21
-10 -35 11 -14 11 -16 -2 -16 -25 0 -32 39 -10 55 10 8 13 15 6 15 -6 0 -18
-8 -25 -18 -7 -10 -31 -23 -53 -30 -58 -18 -76 -35 -82 -80 -4 -33 -10 -42
-31 -47 -14 -3 -30 -1 -35 4 -6 6 -24 11 -39 11 -16 0 -31 7 -34 15 -8 20 -20
19 -28 -2 -4 -10 -4 -14 0 -11 3 4 18 1 33 -6 14 -7 31 -11 37 -9 6 2 17 -3
24 -12 7 -9 8 -15 2 -15 -6 0 -12 6 -15 13 -4 9 -7 9 -18 -1 -8 -7 -9 -13 -4
-12 22 5 27 -1 14 -17 -11 -15 -11 -16 1 -5 21 18 34 15 19 -5 -7 -10 -9 -15
-5 -11 5 4 16 2 24 -5 13 -10 14 -9 7 3 -5 8 -10 20 -11 27 -2 13 23 26 36 18
5 -3 12 -1 15 5 5 8 11 8 20 0 15 -12 35 -6 35 11 0 6 -9 7 -21 4 -15 -5 -19
-4 -15 4 4 6 13 11 21 11 27 0 27 -22 0 -50 -30 -31 -81 -54 -90 -40 -3 4 -16
7 -30 6 -13 -2 -22 1 -19 5 3 5 -2 9 -10 9 -9 0 -16 5 -16 11 0 5 6 7 13 3 9
-6 9 -5 0 8 -7 8 -10 18 -6 22 4 4 0 4 -9 1 -29 -11 -64 44 -38 60 6 3 10 12
9 18 0 9 -2 8 -6 -1 -2 -6 -10 -9 -15 -6 -7 5 -8 2 -3 -6 5 -8 3 -11 -5 -8
-23 7 -22 24 2 37 14 7 16 10 4 6 -15 -4 -17 -1 -13 15 3 11 1 22 -4 25 -10 7
-7 64 5 83 4 6 3 12 -3 12 -6 0 -8 7 -5 15 8 20 21 19 27 -2 3 -10 5 -3 6 15
1 26 5 33 18 30 14 -2 18 -13 18 -45 0 -30 6 -47 20 -58 l20 -17 -20 7 c-16 5
-17 4 -8 -6 10 -10 15 -10 27 0 12 10 14 9 11 -6 -1 -12 -10 -17 -26 -15 -19
2 -21 0 -9 -8 10 -6 11 -10 3 -10 -7 0 -13 -7 -13 -15 0 -8 5 -15 10 -15 6 0
10 -6 10 -12 0 -7 8 -22 16 -33 14 -19 15 -17 13 30 -1 28 2 59 8 70 6 11 9
25 7 30 -4 9 40 35 58 35 5 0 -5 -18 -22 -39 -19 -23 -30 -46 -27 -58 4 -16 5
-16 6 2 4 44 83 105 137 105 13 0 46 14 72 30 27 17 54 30 60 30 5 0 13 7 16
16 5 14 4 15 -9 4 -13 -11 -14 -10 -9 4 9 23 15 20 48 -21z m342 -8 c5 -26 1
-40 -15 -61 -27 -34 -26 -52 1 -81 27 -28 76 -30 109 -4 l24 18 0 -56 c0 -31
-4 -62 -8 -69 -7 -10 -2 -12 20 -7 l28 5 -26 -12 c-14 -7 -24 -19 -22 -25 3
-7 -1 -13 -7 -13 -10 0 -10 -3 -1 -14 10 -12 8 -17 -10 -26 -18 -10 -21 -18
-16 -51 3 -21 1 -37 -3 -34 -8 5 -25 -24 -21 -38 1 -5 -4 -5 -10 -1 -14 8 -28
-13 -29 -46 l-1 -25 -10 25 c-6 13 -15 61 -20 105 -6 44 -17 100 -25 123 -18
56 -47 249 -41 273 4 14 0 19 -13 19 -11 0 -21 4 -24 9 -4 5 2 7 12 5 9 -3 28
-1 42 5 46 18 59 13 66 -24z m406 -15 c-3 -8 -14 -27 -24 -42 -11 -16 -15 -28
-9 -28 6 0 16 10 22 22 7 13 14 18 16 12 4 -11 -37 -83 -47 -84 -3 0 -6 12 -6
28 -1 15 -4 36 -9 47 -5 16 -5 17 4 5 8 -11 11 -11 12 -2 1 6 3 17 4 22 1 6 3
15 4 21 0 5 6 7 13 3 7 -4 8 -3 4 5 -4 7 -5 20 -1 29 6 15 8 15 15 -3 4 -11 5
-27 2 -35z m208 25 c0 -9 -6 -12 -16 -8 -13 5 -13 7 -2 14 17 11 18 11 18 -6z
m-1068 -27 c-7 -7 -12 -8 -12 -2 0 14 12 26 19 19 2 -3 -1 -11 -7 -17z m1472
-11 c0 -15 4 -27 8 -27 4 0 8 -5 8 -11 0 -16 -25 -5 -26 12 -1 8 -3 16 -4 19
-8 22 -7 41 3 37 7 -2 12 -16 11 -30z m-1497 -2 c-9 -21 -37 -19 -37 3 0 14 2
15 10 2 8 -12 10 -12 16 3 3 10 9 16 11 13 3 -3 3 -12 0 -21z m1138 15 c-3 -5
-15 -10 -26 -10 -11 0 -17 5 -14 10 3 6 15 10 26 10 11 0 17 -4 14 -10z m-425
-23 c-1 -7 -10 -23 -20 -36 -18 -20 -27 -23 -66 -18 -36 4 -47 1 -51 -12 -18
-51 -60 -64 -102 -32 -19 14 -22 24 -17 45 3 14 13 26 21 26 13 0 13 -3 3 -20
-10 -15 -10 -25 -2 -38 16 -24 37 -26 65 -4 20 17 22 23 12 45 -10 22 -10 25
3 20 8 -3 21 2 28 12 12 17 13 17 18 -3 8 -30 57 -41 75 -17 7 11 13 27 13 38
0 10 5 15 10 12 6 -3 10 -12 10 -18z m695 6 c-2 -10 -4 -19 -4 -21 -1 -2 -6 0
-11 3 -8 5 -7 11 1 21 15 18 18 18 14 -3z m-1620 -26 c5 4 3 -1 -5 -11 -10
-13 -10 -17 -2 -12 6 4 12 2 12 -3 0 -14 -20 -14 -40 -1 -13 9 -13 10 0 10 12
0 12 2 2 8 -7 5 -10 16 -6 26 6 17 8 17 19 -3 6 -12 15 -18 20 -14z m125 9 c0
-3 -4 -8 -10 -11 -5 -3 -10 -1 -10 4 0 6 5 11 10 11 6 0 10 -2 10 -4z m274
-12 c3 -8 2 -12 -4 -9 -6 3 -10 10 -10 16 0 14 7 11 14 -7z m-360 -2 c3 -5 -1
-9 -9 -9 -8 0 -12 4 -9 9 3 4 7 8 9 8 2 0 6 -4 9 -8z m1366 -7 c0 -8 -4 -15
-10 -15 -5 0 -10 7 -10 15 0 8 5 15 10 15 6 0 10 -7 10 -15z m325 -25 c3 -5 1
-10 -4 -10 -6 0 -11 5 -11 10 0 6 2 10 4 10 3 0 8 -4 11 -10z m-1328 -17 c-2
-10 -8 -28 -15 -40 -9 -16 -9 -24 0 -29 6 -4 8 -3 4 4 -3 6 -3 13 2 16 4 2 8
-6 8 -19 0 -13 -4 -21 -9 -18 -5 3 -6 -4 -3 -15 5 -15 1 -24 -14 -32 -22 -12
-27 -1 -7 19 10 11 9 12 -1 6 -11 -6 -12 -3 -3 13 8 15 7 23 -4 32 -17 14 -8
43 11 36 8 -3 14 -1 14 4 0 6 -5 10 -11 10 -8 0 -8 5 1 15 17 20 31 19 27 -2z
m1263 1 c-10 -11 -10 -14 0 -14 10 0 10 -3 0 -15 -10 -12 -15 -13 -21 -3 -4 6
-5 16 -3 20 3 4 -2 5 -11 1 -12 -4 -13 -8 -5 -13 8 -5 9 -10 2 -14 -16 -10
-21 17 -6 34 7 9 23 16 34 17 18 2 19 -1 10 -13z m-550 -15 c0 -6 -4 -8 -9 -4
-5 3 -13 0 -17 -6 -4 -7 -3 -9 4 -5 14 8 26 -12 28 -47 1 -21 -2 -25 -12 -17
-9 8 -14 7 -20 -1 -4 -7 -3 -10 2 -7 10 6 28 -11 31 -29 1 -6 -4 -14 -13 -17
-10 -4 -13 -2 -8 6 5 7 2 9 -8 6 -12 -5 -15 0 -13 21 1 15 8 38 15 52 l13 24
-23 -20 -23 -20 11 21 c6 12 9 24 5 27 -8 9 18 38 28 31 5 -3 9 -10 9 -15z
m160 11 c13 -8 13 -10 -2 -10 -9 0 -20 5 -23 10 -8 13 5 13 25 0z m-945 -140
c22 -52 45 -106 53 -122 2 -5 -2 -8 -10 -8 -15 0 -84 167 -94 230 -5 28 11 -3
51 -100z m511 100 c0 -11 -4 -20 -8 -20 -4 0 -8 9 -8 20 0 11 4 20 8 20 4 0 8
-9 8 -20z m474 10 c0 -5 -2 -10 -4 -10 -3 0 -8 5 -11 10 -3 6 -1 10 4 10 6 0
11 -4 11 -10z m-1321 -37 c-2 -24 -2 -25 -6 -5 -3 13 -9 19 -15 16 -7 -4 -8
-2 -4 4 13 21 26 13 25 -15z m352 9 c13 -13 15 -19 5 -19 -7 0 -18 9 -25 19
-6 10 -9 18 -6 18 3 0 15 -8 26 -18z m-155 -6 c18 -14 18 -16 2 -33 -17 -17
-18 -16 -18 5 0 26 -31 30 -50 7 -10 -12 -10 -18 0 -30 17 -21 8 -28 -14 -12
-16 11 -17 17 -7 36 10 19 40 38 62 40 3 1 14 -5 25 -13z m661 -12 c-3 -3 -12
-4 -19 -1 -8 3 -5 6 6 6 11 1 17 -2 13 -5z m-592 -34 c-12 -13 -13 -20 -5 -25
8 -5 3 -16 -16 -36 -28 -30 -57 -30 -30 0 9 10 13 22 9 26 -5 5 -1 4 8 -3 12
-9 16 -9 16 2 0 14 -21 16 -33 3 -4 -4 -12 -7 -18 -7 -6 1 6 16 28 35 39 35
71 39 41 5z m1020 0 c-3 -5 -11 -10 -16 -10 -6 0 -7 5 -4 10 3 6 11 10 16 10
6 0 7 -4 4 -10z m-1105 -68 c6 -31 18 -83 27 -115 9 -32 13 -60 11 -63 -3 -3
-13 28 -23 68 -9 40 -23 90 -31 111 -16 43 -18 71 -5 62 5 -3 15 -31 21 -63z
m122 43 c3 -14 1 -28 -5 -32 -6 -3 -7 -1 -3 5 4 7 3 12 -1 12 -5 0 -9 9 -10
20 -2 29 14 25 19 -5z m302 10 c16 -12 17 -15 4 -15 -8 0 -21 7 -28 15 -16 19
-1 19 24 0z m-202 -57 c-7 -7 -12 -8 -12 -2 0 14 12 26 19 19 2 -3 -1 -11 -7
-17z m29 -2 c-8 -10 -9 -16 -1 -21 5 -3 10 -11 10 -18 0 -6 -6 -2 -14 9 -13
17 -6 44 11 44 3 0 0 -6 -6 -14z m173 8 c9 -3 13 -10 10 -15 -8 -14 -21 -11
-28 6 -6 17 -4 18 18 9z m-454 -39 c-7 -9 -10 -18 -7 -22 4 -3 2 -12 -3 -18
-11 -14 -60 -8 -60 7 0 6 8 7 17 4 10 -4 14 -4 11 0 -4 3 3 15 15 25 27 22 44
25 27 4z m486 3 c5 -8 2 -9 -10 -5 -14 6 -15 3 -6 -13 6 -11 7 -20 3 -20 -4 0
2 -7 13 -15 12 -9 14 -14 6 -15 -21 0 -45 27 -29 33 7 3 5 6 -5 6 -19 1 -20
21 -3 33 14 11 23 10 31 -4z m-338 -50 c6 -18 13 -57 17 -87 3 -30 15 -65 26
-79 22 -28 25 -19 5 18 -10 18 -11 30 -4 44 6 12 7 16 0 12 -5 -3 -12 0 -15 8
-8 19 3 28 19 15 9 -7 16 -4 28 12 8 13 19 20 22 16 4 -4 -3 -19 -17 -34 -16
-18 -17 -22 -5 -13 18 14 19 13 13 -3 -4 -11 -3 -16 4 -12 6 4 8 13 5 21 -3 8
0 14 7 14 7 0 18 5 25 12 6 6 19 13 27 14 9 1 1 -16 -22 -46 -34 -45 -65 -68
-47 -37 5 9 4 9 -6 0 -11 -10 -17 -10 -28 0 -13 11 -14 9 -1 -11 8 -12 19 -20
26 -18 6 3 16 -1 23 -8 8 -11 4 -21 -16 -45 -14 -17 -21 -31 -15 -31 7 0 9 -9
6 -23 -7 -26 14 -72 32 -72 7 0 18 6 25 14 8 8 8 11 1 7 -18 -10 -21 17 -5 42
9 14 10 22 3 22 -6 0 -11 -4 -11 -10 0 -5 -7 -10 -15 -10 -9 0 -12 -6 -8 -17
5 -14 3 -16 -7 -6 -7 6 -10 19 -6 29 4 9 9 14 13 10 4 -3 17 4 30 16 l23 22
-4 -32 c-4 -38 12 -53 27 -26 15 25 18 46 6 38 -5 -3 -7 -9 -4 -14 3 -5 1 -11
-4 -14 -5 -3 -11 0 -14 8 -6 16 26 50 36 39 4 -3 7 0 8 8 0 8 4 4 10 -9 6 -17
5 -27 -6 -38 -8 -9 -15 -21 -15 -27 0 -7 5 -4 11 6 5 9 15 17 21 17 7 0 7 -5
-1 -14 -6 -8 -11 -18 -10 -22 1 -5 0 -11 -1 -14 -1 -3 -3 -19 -4 -37 -1 -26
-59 -123 -73 -123 -9 0 -1 22 15 38 34 35 48 58 19 33 -15 -14 -27 -21 -27
-16 0 5 -14 -4 -32 -21 -25 -23 -30 -25 -24 -9 6 16 5 18 -5 8 -10 -10 -10
-16 -1 -25 8 -8 16 -5 31 13 11 13 20 19 21 12 0 -6 -5 -15 -10 -18 -6 -4 -8
-10 -6 -14 3 -4 -4 -12 -14 -18 -15 -10 -19 -8 -23 9 -4 12 -10 17 -17 13 -18
-11 -1 34 21 59 11 11 19 26 19 33 0 8 4 12 9 9 5 -3 14 0 20 7 8 11 6 13 -11
12 -12 -1 -25 -11 -29 -23 -5 -12 -13 -22 -18 -22 -12 0 -35 -59 -33 -84 1
-10 -3 -25 -9 -32 -14 -17 -39 -18 -39 -3 0 6 6 9 13 6 9 -3 11 8 9 44 -2 27
-7 49 -10 49 -3 0 -14 -8 -25 -17 -18 -17 -19 -17 -16 2 2 11 12 25 22 30 14
9 15 14 5 28 -9 12 -17 14 -28 7 -13 -8 -12 -10 3 -10 9 0 17 -5 17 -11 0 -6
-7 -9 -15 -5 -20 7 -20 -35 0 -75 12 -22 13 -34 5 -50 -16 -29 -27 -21 -77 50
-33 46 -54 95 -84 189 -66 212 -64 239 26 244 l50 2 6 -39 c4 -22 4 -56 2 -77
-5 -33 -3 -38 19 -43 19 -5 26 -16 36 -58 7 -29 12 -65 12 -81 0 -24 2 -27 15
-16 13 11 19 7 17 -12 -1 -3 5 -8 12 -11 12 -5 15 10 6 33 -1 3 -2 8 -1 12 3
21 -29 113 -38 111 -14 -4 -15 34 -1 42 6 3 10 20 10 37 0 21 -6 31 -19 35
-10 3 -21 17 -24 31 -3 15 -9 35 -12 44 -5 12 2 21 22 32 38 21 40 20 51 -16z
m42 18 c0 -3 -4 -8 -10 -11 -5 -3 -10 -1 -10 4 0 6 5 11 10 11 6 0 10 -2 10
-4z m900 -5 c0 -11 -59 -25 -68 -16 -3 3 0 10 8 15 19 12 60 13 60 1z m50 -1
c0 -5 -2 -10 -4 -10 -3 0 -8 5 -11 10 -3 6 -1 10 4 10 6 0 11 -4 11 -10z
m-830 -16 c0 -8 -5 -12 -10 -9 -6 4 -8 11 -5 16 9 14 15 11 15 -7z m-35 -3 c3
-5 1 -12 -5 -16 -5 -3 -10 1 -10 9 0 18 6 21 15 7z m395 -21 c0 -5 -7 -7 -15
-4 -8 4 -15 8 -15 10 0 2 7 4 15 4 8 0 15 -4 15 -10z m-169 -17 c12 -15 12
-16 -3 -10 -10 3 -18 4 -18 0 0 -3 8 -12 18 -19 9 -7 12 -14 5 -14 -19 0 -43
29 -37 45 8 20 18 19 35 -2z m-177 -25 c-4 -7 -14 -22 -23 -33 -11 -14 -7 -12
12 4 15 14 27 19 27 13 0 -6 -4 -13 -9 -17 -6 -3 -4 -17 4 -32 12 -23 12 -31
1 -48 -7 -11 -20 -20 -28 -20 -9 0 -22 -6 -31 -13 -14 -12 -16 -10 -15 10 1
13 6 29 12 37 8 11 8 13 -1 7 -25 -14 -13 25 19 65 31 38 46 51 32 27z m-241
-100 c-5 -10 -33 10 -33 23 0 5 9 4 19 -3 11 -7 17 -16 14 -20z m1212 3 c-6
-4 -28 -11 -50 -14 -37 -6 -38 -5 -21 8 21 16 87 21 71 6z m65 -3 c0 -7 -9
-26 -20 -43 -16 -25 -20 -26 -26 -12 -3 10 1 28 10 42 18 27 36 33 36 13z
m-840 -29 c0 -6 -4 -7 -10 -4 -5 3 -10 11 -10 16 0 6 5 7 10 4 6 -3 10 -11 10
-16z m883 7 c6 -15 -28 -66 -43 -66 -4 0 1 18 11 40 22 44 24 47 32 26z m-163
-38 c-19 -13 -37 -26 -39 -31 -2 -5 -14 -18 -27 -29 -20 -18 -74 -132 -74
-158 0 -5 -13 -30 -30 -56 -16 -26 -27 -51 -24 -56 3 -5 0 -7 -8 -6 -7 2 -12
-4 -10 -13 1 -8 -10 -26 -25 -40 l-28 -24 24 27 c14 16 21 31 18 34 -4 4 3 22
14 40 11 19 17 39 13 45 -4 8 -3 9 4 5 11 -7 16 8 14 44 -1 18 28 73 35 66 10
-9 46 71 52 115 1 3 15 16 32 28 18 13 29 19 25 12 -11 -16 10 -13 24 4 7 8
20 15 29 15 9 0 1 -9 -19 -22z m-112 -38 c-7 -10 -14 -17 -17 -15 -4 4 18 35
25 35 2 0 -1 -9 -8 -20z m103 -24 c-18 -19 -44 -51 -57 -73 -13 -21 -23 -33
-24 -28 0 19 41 80 73 107 44 38 48 35 8 -6z m-1099 2 c-7 -7 -12 -8 -12 -2 0
14 12 26 19 19 2 -3 -1 -11 -7 -17z m1374 13 c-6 -9 -56 -22 -56 -14 0 4 40
21 53 22 5 1 6 -3 3 -8z m147 -7 c52 -27 64 -42 117 -149 57 -115 58 -119 5
-205 -19 -30 -41 -69 -48 -85 -14 -29 -96 -105 -115 -105 -5 0 -17 -9 -27 -20
-10 -11 -27 -22 -39 -26 -11 -4 -37 -19 -56 -34 -19 -15 -53 -37 -75 -49 -53
-29 -74 -42 -110 -67 -16 -11 -59 -37 -95 -58 -36 -20 -95 -56 -132 -79 -218
-136 -272 -167 -279 -156 -4 6 -12 8 -18 5 -6 -4 -11 -4 -11 1 0 4 -3 19 -6
33 -5 20 -4 22 6 10 11 -15 11 -8 -7 55 -5 18 -4 19 12 5 17 -13 18 -13 13 2
-4 10 -1 19 8 22 11 4 13 -1 8 -22 -4 -19 -3 -23 4 -12 17 26 25 63 13 56 -6
-4 -11 -3 -11 2 0 18 -36 9 -64 -17 l-29 -26 22 33 c12 17 26 32 31 32 4 0 23
14 41 31 17 16 42 35 53 41 19 10 20 10 7 -6 -8 -9 -11 -19 -8 -23 4 -3 0 -15
-8 -27 -8 -11 -15 -27 -15 -35 0 -17 53 79 53 97 0 19 119 94 274 173 128 66
295 169 309 190 3 5 10 9 16 9 19 0 -25 -40 -89 -82 -35 -23 -62 -43 -59 -45
2 -2 31 14 64 36 73 49 163 138 197 197 39 66 29 66 -14 -1 -37 -59 -91 -118
-91 -99 0 5 19 29 41 53 51 56 69 91 76 149 6 55 -21 160 -46 179 -9 6 -13 15
-8 19 8 9 6 10 40 -41 15 -22 27 -34 27 -27 0 7 -7 24 -16 37 -9 13 -13 29 -9
35 8 13 10 13 48 -6z m-408 -36 c-58 -66 -57 -65 -49 -43 7 20 68 85 80 85 4
0 -11 -19 -31 -42z m64 -5 c-26 -27 -50 -57 -54 -68 -5 -13 -9 -15 -12 -7 -9
23 75 119 107 122 2 0 -16 -21 -41 -47z m-547 15 c-7 -7 -12 -8 -12 -2 0 6 3
14 7 17 3 4 9 5 12 2 2 -3 -1 -11 -7 -17z m-25 -10 c-3 -8 -6 -5 -6 6 -1 11 2
17 5 13 3 -3 4 -12 1 -19z m582 -40 c-34 -35 -75 -83 -90 -108 -16 -25 -29
-40 -29 -35 0 15 39 91 46 87 3 -1 23 20 44 47 37 47 64 70 83 71 4 0 -20 -28
-54 -62z m111 47 c-7 -9 -15 -13 -17 -11 -7 7 7 26 19 26 6 0 6 -6 -2 -15z
m90 5 c0 -6 -8 -14 -17 -17 -29 -11 -168 -120 -297 -233 -93 -81 -102 -85 -36
-16 36 37 88 86 115 107 28 22 79 64 115 95 76 65 120 89 120 64z m-120 -23
c0 -2 -12 -14 -26 -28 l-27 -24 18 28 c14 22 35 36 35 24z m-1480 -27 c0 -5
-5 -12 -12 -16 -7 -4 -8 -3 -4 4 4 7 2 12 -3 12 -6 0 -11 4 -11 10 0 5 7 7 15
4 8 -4 15 -10 15 -14z m1630 0 c0 -6 -8 -14 -17 -17 -10 -4 -56 -36 -103 -72
-47 -35 -91 -64 -97 -64 -7 0 -13 -6 -13 -14 0 -7 -3 -13 -7 -14 -5 0 -16 -2
-25 -4 -11 -2 -15 2 -11 11 3 8 8 14 12 14 5 0 19 9 32 20 76 65 125 100 134
96 6 -2 28 9 50 25 43 32 45 33 45 19z m-1073 -42 c-3 -8 -6 -5 -6 6 -1 11 2
17 5 13 3 -3 4 -12 1 -19z m575 -10 c-8 -8 -9 -4 -5 13 4 13 8 18 11 10 2 -7
-1 -18 -6 -23z m282 17 c-4 -9 -16 -21 -28 -27 -19 -10 -19 -9 3 16 28 30 33
32 25 11z m-165 -46 c-22 -35 -21 -25 3 23 7 15 14 23 16 19 2 -5 -7 -24 -19
-42z m-709 31 c0 -5 -2 -10 -4 -10 -3 0 -8 5 -11 10 -3 6 -1 10 4 10 6 0 11
-4 11 -10z m-320 -35 c-8 -10 -9 -15 -1 -15 6 0 11 -4 11 -10 0 -16 -17 -12
-24 6 -6 16 12 49 22 39 3 -2 -1 -11 -8 -20z m297 -7 c-3 -8 -6 -5 -6 6 -1 11
2 17 5 13 3 -3 4 -12 1 -19z m1068 9 c-3 -6 -24 -24 -48 -39 -23 -15 -54 -38
-69 -50 -29 -25 -66 -55 -112 -91 -77 -59 -200 -168 -338 -299 -86 -83 -67
-52 27 42 92 93 110 127 21 43 -40 -40 -45 -42 -27 -15 12 17 26 32 29 32 4 0
23 15 42 33 19 19 62 58 95 87 33 30 59 58 57 63 -1 5 1 6 6 3 12 -7 54 23 47
34 -3 5 -13 6 -23 3 -9 -3 -15 -4 -12 -2 3 2 17 15 32 28 25 22 33 13 15 -16
-5 -7 -4 -13 1 -13 12 0 33 25 27 32 -3 2 2 5 10 5 11 0 12 -4 3 -14 -31 -37
9 -14 108 62 60 47 110 85 111 85 1 0 0 -6 -2 -13z m-331 -46 c-9 -18 -18 -30
-21 -27 -3 2 3 18 13 35 23 39 29 34 8 -8z m340 8 c-10 -11 -28 -25 -39 -30
-11 -6 -4 4 15 21 40 35 52 39 24 9z m46 -3 c0 -2 -8 -10 -17 -17 -16 -13 -17
-12 -4 4 13 16 21 21 21 13z m-110 -39 c0 -1 -21 -20 -46 -41 -27 -22 -40 -30
-33 -18 7 12 23 26 36 33 13 7 23 16 23 21 0 4 5 8 10 8 6 0 10 -1 10 -3z m60
-72 c-43 -44 -50 -50 -50 -41 0 6 84 86 90 86 2 0 -16 -20 -40 -45z m-1330 10
c0 -8 -7 -15 -16 -15 -14 0 -14 3 -4 15 7 8 14 15 16 15 2 0 4 -7 4 -15z m920
2 c0 -2 -10 -12 -22 -23 l-23 -19 19 23 c18 21 26 27 26 19z m220 -48 c-19
-17 -88 -81 -154 -143 -192 -180 -208 -194 -230 -200 -20 -5 78 93 191 191 26
23 70 61 97 85 27 24 62 51 77 60 16 10 29 22 29 28 0 5 6 10 13 10 6 0 -4
-14 -23 -31z m40 -21 c-29 -24 -99 -89 -156 -145 -57 -57 -111 -103 -120 -103
-27 0 291 287 320 289 5 1 -15 -18 -44 -41z m-315 2 c-3 -5 -12 -10 -18 -10
-7 0 -6 4 3 10 19 12 23 12 15 0z m432 -10 c-7 -11 -31 -31 -53 -45 -38 -25
-38 -25 9 20 52 48 66 57 44 25z m1016 0 c-3 -12 -8 -19 -11 -16 -5 6 5 36 12
36 2 0 2 -9 -1 -20z m-1053 7 c0 -2 -18 -20 -40 -41 -22 -21 -40 -35 -40 -31
0 3 17 22 38 40 36 34 42 38 42 32z m-513 -32 c0 -8 -4 -12 -9 -9 -5 3 -6 10
-3 15 9 13 12 11 12 -6z m63 -15 c-37 -31 -61 -40 -40 -15 11 13 56 41 70 44
3 0 -11 -13 -30 -29z m-100 -3 c0 -2 -10 -12 -22 -23 l-23 -19 19 23 c18 21
26 27 26 19z m443 -52 c-10 -13 -25 -27 -33 -30 -8 -4 -2 8 14 24 36 37 43 40
19 6z m-33 10 c0 -10 -81 -88 -86 -83 -2 3 7 16 22 29 14 13 33 32 42 42 17
18 22 20 22 12z m-540 -65 c-33 -26 -49 -26 -19 0 13 10 29 19 34 19 6 1 -1
-8 -15 -19z m97 -15 c-21 -19 -42 -35 -47 -35 -4 0 -42 -35 -84 -77 -42 -42
-76 -70 -76 -62 0 8 16 30 35 49 19 18 32 37 29 41 -3 5 2 6 10 3 9 -3 16 -2
16 4 0 12 130 112 145 112 6 0 -7 -16 -28 -35z m952 -20 c0 -5 -9 1 -19 14
-11 13 -20 28 -20 35 0 6 9 0 20 -14 11 -14 20 -29 19 -35z m-919 8 c-64 -64
-91 -83 -40 -30 30 31 57 57 61 57 4 0 -5 -12 -21 -27z m1424 11 c3 -8 2 -12
-4 -9 -6 3 -10 10 -10 16 0 14 7 11 14 -7z m-1375 -10 c-8 -9 -43 -47 -79 -83
-36 -37 -80 -84 -97 -106 -18 -22 -33 -34 -33 -27 0 12 110 134 154 171 10 9
28 26 39 39 24 25 36 30 16 6z m-229 -4 c0 -5 -5 -10 -11 -10 -5 0 -7 5 -4 10
3 6 8 10 11 10 2 0 4 -4 4 -10z m25 -27 c-16 -14 -54 -47 -84 -74 -30 -27 -57
-46 -60 -43 -7 7 29 41 102 95 68 52 89 63 42 22z m1961 -33 c3 -22 0 -30 -8
-28 -7 3 -14 22 -16 44 -2 29 0 36 9 27 6 -6 13 -26 15 -43z m-810 -52 c65
-95 69 -102 55 -94 -6 4 -31 37 -56 74 -25 37 -53 78 -62 92 -15 21 -15 23 -2
12 9 -7 39 -45 65 -84z m-1214 69 c-20 -24 -102 -78 -102 -67 0 5 14 19 31 29
17 10 30 23 29 27 -1 8 10 13 49 23 2 1 -1 -5 -7 -12z m183 -81 c-33 -35 -70
-76 -82 -91 -13 -15 -23 -23 -23 -18 0 12 149 173 159 173 4 0 -20 -29 -54
-64z m1544 30 c-3 -3 -11 5 -18 17 -13 21 -12 21 5 5 10 -10 16 -20 13 -22z
m-667 -3 c23 -28 33 -50 12 -28 -10 11 -25 26 -33 33 -8 6 -10 12 -4 12 5 0
17 -8 25 -17z m-60 -15 c-19 -19 -14 -56 10 -72 26 -19 18 -32 -10 -17 -26 14
-34 59 -15 88 9 13 18 21 21 18 3 -3 0 -11 -6 -17z m-1112 -18 c0 -5 -5 -10
-11 -10 -5 0 -7 5 -4 10 3 6 8 10 11 10 2 0 4 -4 4 -10z m1207 -46 c32 -26 92
-79 133 -119 41 -39 90 -81 108 -94 34 -24 41 -38 17 -38 -8 0 -11 5 -8 10 4
6 -1 8 -11 4 -9 -4 -15 -3 -13 1 2 4 -7 17 -20 29 -13 12 -23 20 -23 17 0 -3
-20 16 -45 43 -25 26 -45 51 -45 55 0 4 -6 8 -14 8 -8 0 -28 17 -46 38 -17 21
-47 46 -65 57 -19 10 -35 22 -35 27 0 14 7 10 67 -38z m-1197 0 c-18 -21 -24
-10 -8 15 7 12 14 17 16 11 2 -6 -2 -17 -8 -26z m2254 -48 c-6 -27 -44 -43
-44 -20 0 8 -4 14 -10 14 -5 0 -10 7 -10 15 0 8 5 15 11 15 5 0 7 -5 3 -12 -4
-6 -3 -8 3 -5 6 4 14 24 18 44 l8 38 13 -33 c8 -18 12 -43 8 -56z m-574 34
c-6 -11 -8 -30 -4 -42 6 -20 9 -17 30 23 13 24 23 37 23 29 0 -8 -6 -26 -14
-40 -19 -33 -19 -46 0 -30 8 7 15 19 15 26 0 8 4 14 9 14 5 0 7 -10 4 -22 -4
-21 -3 -22 10 -5 13 15 16 16 27 2 11 -13 15 -13 23 -3 6 9 7 7 2 -7 -4 -11
-8 -26 -8 -32 0 -7 -4 -13 -8 -13 -5 0 -6 -7 -2 -16 3 -9 9 -12 12 -7 3 4 15
10 26 11 18 4 18 2 -4 -17 -24 -21 -57 -29 -46 -11 3 6 1 10 -5 10 -7 0 -9 -8
-5 -20 5 -14 2 -20 -9 -20 -9 0 -16 -5 -16 -11 0 -5 4 -7 10 -4 6 3 7 -1 4 -9
-3 -9 -10 -16 -15 -16 -4 0 -6 -6 -3 -14 3 -7 -3 -21 -12 -31 -15 -14 -15 -18
-3 -26 12 -7 11 -9 -2 -9 -11 0 -16 -9 -16 -30 0 -30 10 -39 22 -20 8 14 24 3
36 -24 8 -18 9 -16 4 9 -6 32 -1 29 32 -22 11 -15 11 -14 3 10 -7 20 -6 27 3
27 8 0 7 3 -3 9 -8 6 -18 7 -22 5 -4 -3 -8 3 -9 13 0 16 -1 16 -9 -2 -7 -18
-8 -18 -15 -3 -5 13 4 30 33 60 21 24 56 61 76 83 45 48 32 15 -21 -54 -43
-57 -42 -74 2 -31 19 19 35 38 35 43 0 12 113 129 163 169 l39 31 -6 -38 c-8
-51 -35 -95 -54 -87 -11 4 -14 1 -10 -10 8 -19 -10 -38 -27 -31 -10 3 -12 -2
-8 -16 3 -12 10 -21 15 -21 5 0 6 5 3 10 -3 6 -1 10 4 10 6 0 11 -9 11 -20 0
-29 32 -42 58 -24 27 19 28 9 2 -34 -11 -18 -18 -37 -15 -43 4 -5 1 -9 -4 -9
-6 0 -11 -8 -11 -17 0 -15 4 -13 20 7 11 14 18 30 15 37 -2 6 1 13 6 15 6 2
11 11 13 20 1 10 5 21 9 24 4 4 2 13 -4 21 -9 10 -8 13 2 13 11 0 11 2 -1 10
-12 7 -12 14 -2 43 23 64 5 51 -27 -20 -6 -13 -18 -23 -28 -23 -11 0 -14 3 -7
8 6 4 25 31 41 60 18 32 33 48 36 40 2 -7 11 8 18 35 7 26 17 47 22 47 5 0 7
7 3 15 -3 8 -4 15 -2 15 3 0 12 3 22 7 16 6 16 3 -3 -23 -16 -23 -22 -52 -28
-134 -4 -64 -14 -121 -24 -145 -10 -22 -28 -66 -41 -97 -17 -41 -31 -60 -50
-68 -23 -9 -170 -49 -170 -46 0 1 24 49 54 108 40 81 50 108 40 112 -9 4 -14
-2 -14 -15 0 -11 -4 -17 -10 -14 -6 4 -10 -7 -10 -24 0 -17 -4 -31 -8 -31 -5
0 -13 -12 -20 -27 -10 -26 -11 -26 -6 -3 3 15 2 20 -3 13 -6 -8 -14 -9 -23 -3
-11 7 -12 10 -2 10 7 0 10 5 6 11 -4 8 -9 7 -15 -2 -6 -9 -3 -18 7 -26 9 -7
13 -17 8 -24 -4 -8 -3 -10 4 -5 15 9 15 -9 1 -35 -5 -11 -15 -16 -21 -13 -7 4
-8 3 -4 -4 4 -7 1 -12 -6 -12 -19 0 -79 45 -71 53 3 4 1 7 -6 7 -16 0 -77 50
-74 61 2 5 -3 6 -11 3 -16 -6 -66 50 -66 76 0 9 -7 23 -15 30 -17 14 -20 40
-4 40 5 0 8 -4 4 -9 -3 -5 -1 -12 4 -15 5 -4 11 1 13 10 3 14 6 13 29 -5 l27
-21 5 21 c3 12 3 18 0 15 -9 -8 -43 13 -43 27 0 7 14 14 33 15 24 2 28 0 17
-8 -13 -8 -12 -10 3 -10 10 0 16 -4 12 -9 -7 -12 31 -25 46 -16 7 5 5 13 -6
25 -11 12 -13 20 -6 25 6 3 11 11 11 17 0 6 -6 5 -16 -3 -14 -11 -18 -10 -30
6 -8 10 -14 27 -14 38 0 10 -5 27 -10 37 -7 14 -6 31 7 61 9 24 18 38 21 31 2
-6 -2 -20 -8 -32z m260 10 c0 -11 -60 -9 -66 2 -5 7 -2 9 9 5 11 -4 14 -2 11
8 -5 12 -1 12 20 2 14 -7 26 -14 26 -17z m-1870 3 c-1 -20 -38 -69 -46 -61 -3
3 2 13 11 21 8 9 15 22 15 30 0 13 9 27 17 27 2 0 3 -8 3 -17z m1777 11 c-3
-3 -12 -4 -19 -1 -8 3 -5 6 6 6 11 1 17 -2 13 -5z m241 -9 c-9 -9 -129 -12
-134 -3 -3 4 27 8 67 8 40 0 70 -2 67 -5z m-690 -70 c-3 -3 -9 2 -12 12 -6 14
-5 15 5 6 7 -7 10 -15 7 -18z m716 10 c-4 -8 -8 -15 -10 -15 -2 0 -4 7 -4 15
0 8 4 15 10 15 5 0 7 -7 4 -15z m-1998 -62 c-11 -11 -17 4 -9 23 7 18 8 18 11
1 2 -10 1 -21 -2 -24z m1013 33 c-2 -2 -17 -6 -34 -10 -22 -5 -26 -4 -15 4 14
9 59 15 49 6z m523 -18 c-7 -7 -12 -8 -12 -2 0 14 12 26 19 19 2 -3 -1 -11 -7
-17z m578 2 c-6 -11 -13 -20 -16 -20 -2 0 0 9 6 20 6 11 13 20 16 20 2 0 0 -9
-6 -20z m-1075 -10 c-3 -5 -13 -10 -21 -10 -8 0 -12 5 -9 10 3 6 13 10 21 10
8 0 12 -4 9 -10z m314 -44 c-2 -2 -13 8 -23 22 l-19 27 24 -22 c12 -12 21 -24
18 -27z m-308 17 c-10 -4 -10 -7 -1 -13 8 -5 7 -9 -5 -13 -9 -4 -13 -3 -10 3
3 6 -2 10 -12 10 -15 0 -16 2 -3 10 8 5 22 9 30 9 12 0 12 -2 1 -6z m-591 -18
c0 -17 -42 -85 -49 -80 -5 3 -12 -2 -15 -11 -3 -8 -10 -12 -16 -9 -5 3 -10 -1
-10 -9 0 -9 -4 -16 -10 -16 -5 0 -10 1 -10 3 1 11 28 78 31 76 2 -2 17 9 33
24 27 25 46 34 46 22z m1250 -19 c0 -2 -9 -6 -20 -9 -11 -3 -18 -1 -14 4 5 9
34 13 34 5z m-1865 -57 c4 -17 2 -30 -6 -34 -8 -5 -10 -4 -5 3 4 7 3 12 -2 12
-14 0 -23 27 -15 46 7 19 20 7 28 -27z m1245 13 c-8 -3 -30 -11 -47 -18 -18
-7 -33 -9 -33 -4 0 4 14 11 30 15 17 4 28 10 25 15 -3 4 5 6 17 2 16 -4 18 -7
8 -10z m590 -13 c0 -3 -6 -6 -14 -6 -8 0 -11 8 -8 20 4 14 7 16 13 5 5 -7 9
-16 9 -19z m-653 15 c-3 -3 -12 -4 -19 -1 -8 3 -5 6 6 6 11 1 17 -2 13 -5z
m108 -14 c-18 -20 -17 -20 14 -16 20 2 30 -1 28 -8 -2 -6 -26 -12 -53 -13 -27
0 -42 2 -34 5 8 3 23 16 33 29 10 12 21 23 24 23 3 0 -2 -9 -12 -20z m-1315
-50 c0 -3 -8 -6 -18 -7 -17 -1 -20 13 -13 47 2 6 31 -32 31 -40z m1830 15 c-7
-9 -15 -13 -17 -11 -7 7 7 26 19 26 6 0 6 -6 -2 -15z m-2342 -51 c-2 -3 9 -12
25 -20 28 -15 36 -34 14 -34 -13 0 -43 40 -39 53 1 4 -5 7 -13 7 -8 0 -15 2
-15 4 0 2 -3 12 -7 22 -5 14 -2 13 15 -4 12 -12 21 -25 20 -28z m1877 36 c-3
-5 -14 -10 -23 -9 -14 0 -13 2 3 9 27 11 27 11 20 0z m-1525 -5 c0 -2 -10 -9
-22 -15 -22 -11 -22 -10 -4 4 21 17 26 19 26 11z m577 -42 c-21 -21 -27 -15
-16 16 7 19 12 22 21 13 9 -9 8 -16 -5 -29z m900 31 c-3 -3 -12 -4 -19 -1 -8
3 -5 6 6 6 11 1 17 -2 13 -5z m-1477 -29 c-7 -8 -16 -15 -21 -15 -5 0 -1 8 9
18 20 22 31 19 12 -3z m1650 5 c0 -5 -4 -10 -10 -10 -5 0 -10 5 -10 10 0 6 5
10 10 10 6 0 10 -4 10 -10z m-1620 -18 c0 -4 -6 -14 -12 -21 -11 -11 -9 -12
11 -6 14 4 21 3 18 -2 -4 -6 5 -15 18 -21 27 -13 32 -31 13 -52 -10 -11 -9
-11 6 0 15 12 20 12 23 3 3 -7 11 -13 18 -13 8 0 16 -4 19 -8 3 -4 -16 -8 -40
-8 -57 1 -84 28 -57 58 9 10 11 18 5 18 -6 0 -14 -4 -17 -10 -3 -5 -11 -10
-17 -10 -6 0 -8 3 -5 6 3 4 2 15 -3 25 -7 12 -7 20 0 24 6 4 8 11 5 16 -4 5
-1 9 4 9 6 0 11 -4 11 -8z m1690 -27 c0 -8 -4 -15 -10 -15 -5 0 -7 7 -4 15 4
8 8 15 10 15 2 0 4 -7 4 -15z m-2015 -25 c-11 -5 -27 -9 -35 -9 -13 -1 -13 0
0 9 8 5 24 9 35 9 l20 0 -20 -9z m2083 -17 c-16 -37 -15 -36 -28 -28 -7 4 -3
15 12 31 29 30 30 30 16 -3z m-1258 7 c0 -5 -6 -10 -12 -11 -7 0 -4 -4 7 -9
19 -8 19 -9 -2 -9 -17 -1 -23 5 -23 19 0 11 7 20 15 20 8 0 15 -4 15 -10z
m1330 -10 c0 -5 -2 -10 -4 -10 -3 0 -8 5 -11 10 -3 6 -1 10 4 10 6 0 11 -4 11
-10z m-1210 -13 c0 -2 -15 -13 -32 -26 l-33 -22 28 25 c26 24 37 31 37 23z
m1296 -44 c-6 -6 -66 29 -66 38 0 5 15 -1 34 -13 19 -13 33 -24 32 -25z
m-2039 14 c-2 -7 0 -21 6 -32 8 -17 6 -16 -17 4 -31 29 -32 36 -5 38 12 1 19
-3 16 -10z m788 -22 c-46 -40 -105 -78 -105 -67 0 4 27 25 60 47 33 22 60 43
60 48 0 4 6 7 13 7 6 -1 -6 -16 -28 -35z m1150 25 c3 -5 1 -10 -4 -10 -6 0
-11 5 -11 10 0 6 2 10 4 10 3 0 8 -4 11 -10z m-2010 -56 c19 -45 19 -44 -2
-45 -12 -1 -10 -4 7 -9 22 -7 22 -8 5 -10 -11 -2 -2 -6 20 -10 l40 -6 -37 -8
c-43 -9 -81 0 -59 13 10 7 9 10 -3 14 -23 9 -20 25 7 30 19 4 18 4 -5 6 -21 1
-28 6 -28 22 0 13 4 18 13 14 6 -4 3 1 -7 9 -19 15 -19 16 7 16 21 0 30 -7 42
-36z m905 29 c0 -7 -29 -28 -105 -76 l-30 -19 27 24 c83 72 108 89 108 71z
m1210 -23 c19 -15 21 -20 9 -20 -9 0 -27 9 -40 20 -32 26 -3 27 31 0z m289
-40 c-7 -28 -20 -56 -27 -63 -13 -10 -14 -8 -7 13 4 14 11 30 15 35 4 6 11 25
15 43 4 18 9 31 12 28 3 -3 -1 -28 -8 -56z m-280 -5 c2 -3 1 -8 -2 -12 -4 -3
-15 1 -25 10 -10 10 -24 17 -30 17 -6 0 -14 5 -17 11 -6 9 62 -15 74 -26z
m241 15 c0 -5 -5 -10 -11 -10 -5 0 -7 5 -4 10 3 6 8 10 11 10 2 0 4 -4 4 -10z
m-155 -13 c-37 -25 -88 -47 -94 -41 -3 4 -1 8 4 10 6 2 26 12 45 23 42 22 75
28 45 8z m85 2 c0 -17 -40 -79 -51 -79 -6 0 -7 -4 -4 -10 3 -5 2 -10 -4 -10
-23 0 -20 21 9 53 16 19 30 40 30 46 0 6 5 11 10 11 6 0 10 -5 10 -11z m70
-13 c0 -3 -4 -8 -10 -11 -5 -3 -10 -1 -10 4 0 6 5 11 10 11 6 0 10 -2 10 -4z
m-1530 -20 c0 -2 -24 -21 -52 -41 l-53 -37 44 41 c39 36 61 49 61 37z m1367
-33 c-12 -13 -15 -13 -14 -2 2 8 7 21 12 29 7 11 10 11 13 1 2 -7 -3 -20 -11
-28z m153 12 c0 -8 -4 -15 -10 -15 -5 0 -7 7 -4 15 4 8 8 15 10 15 2 0 4 -7 4
-15z m-1507 -12 c-6 -2 -31 -19 -55 -38 -40 -32 -58 -39 -43 -16 3 6 13 11 21
11 8 0 14 4 14 9 0 11 63 50 70 43 3 -3 0 -7 -7 -9z m-33 -72 c0 -5 -7 -12
-16 -15 -14 -5 -15 -4 -4 9 14 17 20 19 20 6z m-50 -36 c-7 -9 -15 -13 -19
-10 -3 3 1 10 9 15 21 14 24 12 10 -5z m46 -52 c-8 -15 -15 -22 -16 -15 0 17
20 55 27 49 2 -3 -2 -18 -11 -34z m-961 -2 c3 -5 2 -12 -3 -15 -5 -3 -9 1 -9
9 0 17 3 19 12 6z m355 -21 c0 -5 -4 -10 -10 -10 -5 0 -10 5 -10 10 0 6 5 10
10 10 6 0 10 -4 10 -10z m2038 -71 c-16 -10 -33 34 -23 59 6 14 10 11 22 -17
12 -28 12 -35 1 -42z m-2398 41 c8 -5 11 -10 5 -10 -5 0 -17 5 -25 10 -8 5
-10 10 -5 10 6 0 17 -5 25 -10z m488 -32 c-27 -38 -33 -47 -77 -127 -19 -34
-36 -59 -38 -57 -8 7 77 159 105 189 34 36 39 34 10 -5z m412 2 c0 -5 -10 -15
-22 -21 -23 -12 -23 -12 -4 10 21 23 26 26 26 11z m-397 -55 c-3 -9 -8 -14
-10 -11 -3 3 -2 9 2 15 9 16 15 13 8 -4z m2 -40 c-21 -25 -41 -43 -44 -39 -3
3 1 11 9 17 9 7 26 27 39 45 13 18 25 31 28 28 3 -3 -12 -26 -32 -51z m312 13
c-19 -24 -32 -48 -30 -55 2 -6 -1 -14 -6 -18 -7 -4 -9 1 -5 12 5 16 4 16 -8 3
-8 -8 -31 -31 -53 -50 -21 -19 -1 7 45 58 47 50 86 92 88 92 2 0 -12 -19 -31
-42z m1433 28 c0 -3 -4 -8 -10 -11 -5 -3 -10 -1 -10 4 0 6 5 11 10 11 6 0 10
-2 10 -4z m-1700 -23 c-6 -10 -24 -36 -41 -58 -16 -22 -50 -70 -75 -107 -24
-38 -47 -68 -50 -68 -5 0 43 86 59 105 4 6 30 40 58 78 46 62 74 90 49 50z
m50 -12 c0 -5 -22 -37 -50 -71 -27 -34 -50 -65 -50 -69 -1 -3 -17 -24 -36 -46
l-36 -40 28 45 c24 40 135 188 142 190 1 0 2 -4 2 -9z m1820 -73 c0 -16 -52
-90 -58 -83 -3 2 3 16 12 29 18 29 20 36 7 36 -5 0 -11 -9 -14 -20 -3 -11 -10
-20 -16 -20 -18 0 -13 35 10 64 17 21 24 24 40 16 10 -6 19 -16 19 -22z
m-1984 -22 c-14 -19 -26 -39 -26 -44 0 -5 -7 -16 -17 -23 -15 -13 -15 -12 -3
11 16 32 59 90 67 90 3 0 -6 -15 -21 -34z m1891 -12 c-3 -3 -12 -4 -19 -1 -8
3 -5 6 6 6 11 1 17 -2 13 -5z m-7 -44 c-8 -5 -19 -10 -25 -10 -5 0 -3 5 5 10
8 5 20 10 25 10 6 0 3 -5 -5 -10z"/>
<path d="M2195 3829 c-4 -6 -5 -12 -2 -15 2 -3 7 2 10 11 7 17 1 20 -8 4z"/>
<path d="M2213 3803 c-15 -6 -18 -63 -3 -63 5 0 7 7 3 15 -3 9 3 25 12 35 18
19 13 24 -12 13z"/>
<path d="M2236 3703 c-6 -14 -5 -15 5 -6 7 7 10 15 7 18 -3 3 -9 -2 -12 -12z"/>
<path d="M2181 3674 c-1 -12 6 -28 15 -35 9 -7 20 -22 24 -33 7 -20 7 -19 20
3 6 13 8 21 3 18 -12 -7 -36 13 -50 43 -11 23 -12 23 -12 4z"/>
<path d="M1430 3672 c0 -5 7 -9 15 -9 8 0 12 4 9 9 -3 4 -9 8 -15 8 -5 0 -9
-4 -9 -8z"/>
<path d="M1416 3610 c4 -8 8 -33 10 -54 2 -22 8 -44 14 -50 16 -16 12 -51 -10
-79 -24 -31 -25 -32 -2 -34 9 0 28 13 42 31 13 17 17 25 7 17 -29 -23 -19 2
17 41 19 20 38 34 42 30 5 -4 3 0 -4 9 -6 9 -9 18 -6 21 12 13 -26 15 -50 3
-28 -15 -35 -10 -30 20 1 10 -2 25 -7 31 -7 8 -6 15 2 20 8 5 9 3 4 -6 -6 -9
-4 -11 5 -5 9 6 11 4 5 -6 -8 -12 -6 -12 8 0 18 14 23 26 8 16 -5 -3 -12 -1
-16 4 -3 5 -14 9 -25 8 -15 -1 -18 -6 -14 -17z m76 -112 c-15 -15 -27 -28 -27
-28 0 0 -2 11 -3 25 -1 15 6 30 20 39 34 24 41 -2 10 -36z m-32 -72 c0 -2 -8
-10 -17 -17 -16 -13 -17 -12 -4 4 13 16 21 21 21 13z"/>
<path d="M1472 3592 c-7 -5 -14 -19 -17 -32 l-4 -23 24 23 c13 13 22 27 19 31
-6 11 -6 11 -22 1z m18 -6 c0 -2 -8 -10 -17 -17 -16 -13 -17 -12 -4 4 13 16
21 21 21 13z"/>
<path d="M1519 3483 c-13 -16 -12 -17 4 -4 9 7 17 15 17 17 0 8 -8 3 -21 -13z"/>
<path d="M1890 3420 c-3 -25 -6 -41 -10 -50 -7 -19 -7 -41 1 -46 5 -3 7 -10 4
-15 -4 -5 -2 -9 3 -9 14 0 18 37 11 95 -3 29 -7 40 -9 25z"/>
<path d="M2241 3388 c-2 -36 12 -42 35 -15 l19 22 -22 -18 c-21 -19 -22 -18
-26 10 l-4 28 -2 -27z"/>
<path d="M2280 3355 c-7 -9 -11 -18 -8 -20 3 -3 11 1 18 10 7 9 11 18 8 20 -3
3 -11 -1 -18 -10z"/>
<path d="M2254 3314 c3 -16 7 -48 8 -71 2 -40 3 -42 20 -26 22 20 23 24 2 16
-14 -5 -16 1 -13 39 3 30 -1 50 -10 58 -11 11 -12 8 -7 -16z"/>
<path d="M1887 3284 c-4 -4 -7 -14 -7 -23 0 -11 3 -12 11 -4 6 6 10 16 7 23
-2 6 -7 8 -11 4z"/>
<path d="M2275 3197 c-11 -7 -22 -13 -24 -14 -2 -1 3 -9 12 -17 13 -14 16 -14
23 2 7 17 14 43 11 41 -1 0 -11 -6 -22 -12z"/>
<path d="M2303 3155 c0 -8 4 -12 9 -9 5 3 6 10 3 15 -9 13 -12 11 -12 -6z"/>
<path d="M2260 3130 c-9 -6 -10 -10 -3 -10 6 0 15 5 18 10 8 12 4 12 -15 0z"/>
<path d="M2120 2946 c0 -2 8 -10 18 -17 15 -13 16 -12 3 4 -13 16 -21 21 -21
13z"/>
<path d="M2090 2916 c0 -2 8 -10 18 -17 15 -13 16 -12 3 4 -13 16 -21 21 -21
13z"/>
<path d="M2123 2793 c9 -2 23 -2 30 0 6 3 -1 5 -18 5 -16 0 -22 -2 -12 -5z"/>
<path d="M2274 2548 l-19 -23 23 19 c21 18 27 26 19 26 -2 0 -12 -10 -23 -22z"/>
<path d="M2022 2504 c-11 -12 -10 -17 2 -30 15 -14 16 -12 16 15 0 35 0 36
-18 15z"/>
<path d="M2247 2382 c-21 -23 -21 -32 -3 -32 8 0 18 9 21 21 9 28 2 33 -18 11z"/>
<path d="M1335 2640 c3 -5 8 -10 11 -10 2 0 4 5 4 10 0 6 -5 10 -11 10 -5 0
-7 -4 -4 -10z"/>
<path d="M1675 2430 c-3 -5 -2 -10 4 -10 5 0 13 5 16 10 3 6 2 10 -4 10 -5 0
-13 -4 -16 -10z"/>
<path d="M1645 2360 c-3 -6 1 -7 9 -4 18 7 21 14 7 14 -6 0 -13 -4 -16 -10z"/>
<path d="M1690 2180 c-9 -6 -10 -10 -3 -10 6 0 15 5 18 10 8 12 4 12 -15 0z"/>
<path d="M1595 2140 c-3 -6 1 -7 9 -4 18 7 21 14 7 14 -6 0 -13 -4 -16 -10z"/>
<path d="M594 2482 c3 -5 1 -12 -6 -14 -8 -3 -6 -7 5 -11 20 -7 24 17 5 29 -6
4 -8 3 -4 -4z"/>
<path d="M980 2480 c-13 -8 -13 -10 2 -10 9 0 20 5 23 10 8 13 -5 13 -25 0z"/>
<path d="M600 2433 c0 -5 5 -15 10 -23 7 -12 9 -10 7 8 -1 19 -17 33 -17 15z"/>
<path d="M721 2364 c0 -11 3 -14 6 -6 3 7 2 16 -1 19 -3 4 -6 -2 -5 -13z"/>
<path d="M753 2235 c0 -7 6 -11 14 -8 7 3 13 6 13 8 0 2 -6 5 -13 8 -8 3 -14
-1 -14 -8z"/>
<path d="M1114 2118 l-19 -23 23 19 c21 18 27 26 19 26 -2 0 -12 -10 -23 -22z"/>
<path d="M1149 1813 l-24 -28 28 24 c25 23 32 31 24 31 -2 0 -14 -12 -28 -27z"/>
<path d="M1116 2053 c-6 -14 -5 -15 5 -6 7 7 10 15 7 18 -3 3 -9 -2 -12 -12z"/>
<path d="M1145 2052 c3 -3 -1 -12 -8 -20 -11 -13 -9 -14 11 -1 26 16 28 26 7
26 -8 0 -13 -3 -10 -5z"/>
<path d="M1149 2008 c-12 -23 -12 -23 10 -4 23 21 26 26 11 26 -5 0 -15 -10
-21 -22z"/>
<path d="M2009 1923 l-24 -28 28 24 c25 23 32 31 24 31 -2 0 -14 -12 -28 -27z"/>
<path d="M1927 1785 c-4 -11 -10 -27 -13 -35 -3 -8 1 -5 11 8 9 12 15 28 13
34 -3 7 -7 4 -11 -7z"/>
<path d="M2471 1804 c0 -11 3 -14 6 -6 3 7 2 16 -1 19 -3 4 -6 -2 -5 -13z"/>
<path d="M2471 1684 c0 -11 3 -14 6 -6 3 7 2 16 -1 19 -3 4 -6 -2 -5 -13z"/>
<path d="M2120 1340 c-14 -11 -20 -20 -14 -20 6 0 19 9 29 20 23 25 17 25 -15
0z"/>
<path d="M2030 1289 l-25 -20 33 16 c17 8 32 18 32 20 0 10 -16 4 -40 -16z"/>
<path d="M1950 1249 c-19 -10 -28 -19 -20 -19 8 0 26 9 40 20 31 25 25 24 -20
-1z"/>
<path d="M1859 1203 c-13 -15 -12 -15 9 -4 23 12 28 21 13 21 -5 0 -15 -7 -22
-17z"/>
<path d="M1787 1163 c-19 -16 -38 -35 -40 -43 -3 -8 -8 -24 -13 -35 -7 -18 -6
-19 8 -5 8 9 18 25 22 37 4 12 14 27 23 35 15 11 16 11 10 -5 -4 -11 -3 -16 3
-12 6 3 10 12 10 20 0 7 6 15 13 18 6 2 9 7 6 11 -3 3 -22 -6 -42 -21z"/>
<path d="M1657 1075 c-15 -14 -27 -29 -27 -32 0 -3 8 1 18 10 10 10 21 15 24
12 3 -3 8 3 11 15 6 25 7 25 -26 -5z"/>
<path d="M1628 920 c-3 -16 -1 -30 4 -30 4 0 8 14 8 30 0 17 -2 30 -4 30 -2 0
-6 -13 -8 -30z"/>
<path d="M2252 1749 c-23 -17 -42 -33 -42 -35 0 -3 20 9 45 27 40 29 51 39 42
39 -2 0 -22 -14 -45 -31z"/>
<path d="M2179 1693 c-13 -16 -12 -17 4 -4 9 7 17 15 17 17 0 8 -8 3 -21 -13z"/>
<path d="M2068 1563 c-18 -16 -44 -38 -58 -51 -14 -13 -44 -37 -67 -55 -44
-33 -68 -66 -35 -48 9 5 25 18 34 28 9 10 29 27 43 38 15 11 39 31 53 44 15
13 41 34 57 47 17 13 25 24 18 24 -6 0 -26 -12 -45 -27z"/>
<path d="M3636 1141 c-4 -7 -5 -15 -2 -18 9 -9 19 4 14 18 -4 11 -6 11 -12 0z"/>
<path d="M3163 1090 c-11 -16 -10 -18 1 -14 15 6 30 34 18 34 -4 0 -13 -9 -19
-20z"/>
<path d="M3426 1091 c-4 -5 -2 -12 4 -16 5 -3 10 -11 10 -17 0 -7 -5 -6 -14 1
-8 7 -17 8 -20 3 -3 -6 0 -15 8 -21 13 -11 22 -6 39 25 8 15 -19 39 -27 25z"/>
<path d="M3100 1065 c0 -8 2 -15 4 -15 2 0 6 7 10 15 3 8 1 15 -4 15 -6 0 -10
-7 -10 -15z"/>
<path d="M3110 930 c-8 -5 -10 -10 -5 -10 6 0 17 5 25 10 8 5 11 10 5 10 -5 0
-17 -5 -25 -10z"/>
<path d="M3030 912 c0 -5 6 -17 14 -27 13 -18 14 -18 9 8 -5 24 -23 39 -23 19z"/>
<path d="M3070 885 c0 -5 5 -17 10 -25 5 -8 10 -10 10 -5 0 6 -5 17 -10 25 -5
8 -10 11 -10 5z"/>
<path d="M3126 787 c3 -10 9 -15 12 -12 3 3 0 11 -7 18 -10 9 -11 8 -5 -6z"/>
<path d="M3424 779 c-10 -17 10 -29 23 -14 10 10 9 14 -2 19 -8 3 -17 0 -21
-5z"/>
<path d="M3215 750 c-3 -5 -1 -10 4 -10 6 0 11 5 11 10 0 6 -2 10 -4 10 -3 0
-8 -4 -11 -10z"/>
<path d="M1239 753 c-13 -16 -12 -17 4 -4 9 7 17 15 17 17 0 8 -8 3 -21 -13z"/>
<path d="M2516 4211 c-3 -5 -15 -7 -26 -4 -11 3 -20 1 -20 -4 0 -13 49 -8 63
6 8 8 8 11 0 11 -7 0 -14 -4 -17 -9z"/>
<path d="M3655 4189 c-9 -17 -14 -33 -12 -36 3 -2 8 5 12 16 3 12 13 28 21 36
9 8 11 15 5 15 -6 0 -18 -14 -26 -31z"/>
<path d="M1960 4190 l-25 -8 28 -1 c15 -1 27 4 27 9 0 6 -1 10 -2 9 -2 -1 -14
-5 -28 -9z"/>
<path d="M3990 4194 c0 -6 9 -37 19 -70 11 -32 22 -68 25 -79 3 -11 3 -2 1 20
-5 38 -44 152 -45 129z"/>
<path d="M1883 4173 c9 -2 23 -2 30 0 6 3 -1 5 -18 5 -16 0 -22 -2 -12 -5z"/>
<path d="M1690 4120 c-7 -28 -10 -53 -7 -56 2 -3 10 18 17 46 7 28 10 53 7 56
-2 3 -10 -18 -17 -46z"/>
<path d="M1727 4163 c-4 -3 -7 -17 -7 -29 0 -18 4 -22 18 -18 14 5 14 3 -2
-10 -16 -13 -17 -16 -4 -16 22 0 30 28 11 38 -10 6 -14 16 -10 26 7 17 5 20
-6 9z"/>
<path d="M2023 4163 c9 -2 23 -2 30 0 6 3 -1 5 -18 5 -16 0 -22 -2 -12 -5z"/>
<path d="M3790 4150 c-8 -5 -10 -10 -5 -10 6 0 17 5 25 10 8 5 11 10 5 10 -5
0 -17 -5 -25 -10z"/>
<path d="M1764 4102 c-2 -37 -2 -37 8 -9 6 16 6 33 2 37 -5 5 -10 -7 -10 -28z"/>
<path d="M3565 4120 c-3 -6 1 -7 9 -4 18 7 21 14 7 14 -6 0 -13 -4 -16 -10z"/>
<path d="M3475 4100 c-3 -6 1 -7 9 -4 18 7 21 14 7 14 -6 0 -13 -4 -16 -10z"/>
<path d="M3640 4100 c14 -4 34 -8 45 -8 l20 -1 -20 9 c-11 5 -31 8 -45 8 l-25
0 25 -8z"/>
<path d="M2275 4080 c-3 -6 1 -7 9 -4 18 7 21 14 7 14 -6 0 -13 -4 -16 -10z"/>
<path d="M2355 4070 c-3 -6 1 -7 9 -4 18 7 21 14 7 14 -6 0 -13 -4 -16 -10z"/>
<path d="M3445 4059 c-4 -6 -5 -12 -2 -15 2 -3 7 2 10 11 7 17 1 20 -8 4z"/>
<path d="M3755 4060 c3 -5 8 -10 11 -10 2 0 4 5 4 10 0 6 -5 10 -11 10 -5 0
-7 -4 -4 -10z"/>
<path d="M1756 4043 c-6 -14 -5 -15 5 -6 7 7 10 15 7 18 -3 3 -9 -2 -12 -12z"/>
<path d="M2380 4056 c0 -2 8 -10 18 -17 15 -13 16 -12 3 4 -13 16 -21 21 -21
13z"/>
<path d="M3830 4056 c0 -2 8 -10 18 -17 15 -13 16 -12 3 4 -13 16 -21 21 -21
13z"/>
<path d="M1672 4030 c0 -14 2 -19 5 -12 2 6 2 18 0 25 -3 6 -5 1 -5 -13z"/>
<path d="M1100 4020 c-25 -10 -38 -19 -29 -19 9 -1 36 8 60 19 56 25 29 25
-31 0z"/>
<path d="M3425 4003 c-35 -47 -39 -59 -7 -23 17 19 31 38 32 43 0 11 -4 8 -25
-20z"/>
<path d="M4042 3990 c0 -19 2 -27 5 -17 2 9 2 25 0 35 -3 9 -5 1 -5 -18z"/>
<path d="M1015 3990 c-13 -6 -15 -9 -5 -9 8 0 22 4 30 9 18 12 2 12 -25 0z"/>
<path d="M1070 3975 c-33 -19 -21 -19 21 0 19 8 27 14 19 14 -8 0 -26 -6 -40
-14z"/>
<path d="M1656 3929 c-7 -76 -7 -197 2 -264 4 -28 7 33 7 138 0 103 0 187 -1
187 -1 0 -4 -28 -8 -61z"/>
<path d="M1695 3960 c-3 -5 -2 -10 4 -10 5 0 13 5 16 10 3 6 2 10 -4 10 -5 0
-13 -4 -16 -10z"/>
<path d="M4053 3795 c0 -130 1 -141 8 -79 5 40 5 107 0 150 -8 72 -8 65 -8
-71z"/>
<path d="M1031 3914 c0 -11 3 -14 6 -6 3 7 2 16 -1 19 -3 4 -6 -2 -5 -13z"/>
<path d="M2391 3897 c2 -1 12 -9 22 -16 15 -12 17 -12 11 3 -3 9 -13 16 -22
16 -8 0 -13 -1 -11 -3z"/>
<path d="M2318 3883 c7 -3 16 -2 19 1 4 3 -2 6 -13 5 -11 0 -14 -3 -6 -6z"/>
<path d="M2445 3836 c10 -14 19 -26 22 -26 7 0 -17 39 -28 46 -6 3 -3 -5 6
-20z"/>
<path d="M2489 3789 c14 -5 28 -6 32 -2 4 4 -6 9 -24 10 -30 1 -31 1 -8 -8z"/>
<path d="M1057 3754 c-3 -5 -2 -25 2 -44 6 -30 8 -32 14 -14 8 23 -6 73 -16
58z"/>
<path d="M2631 3700 c0 -8 4 -22 9 -30 12 -18 12 -2 0 25 -6 13 -9 15 -9 5z"/>
<path d="M1071 3660 c0 -8 7 -31 14 -50 10 -26 14 -29 14 -14 1 12 -6 35 -14
50 -8 16 -15 22 -14 14z"/>
<path d="M2657 3653 c-3 -5 5 -8 18 -8 13 0 21 3 18 8 -2 4 -10 7 -18 7 -8 0
-16 -3 -18 -7z"/>
<path d="M4042 3610 c0 -19 2 -27 5 -17 2 9 2 25 0 35 -3 9 -5 1 -5 -18z"/>
<path d="M1927 3617 c-3 -8 -1 -18 6 -20 9 -3 8 -9 -2 -23 -14 -18 -14 -18 4
-2 14 13 16 22 8 39 -8 19 -10 20 -16 6z"/>
<path d="M2714 3595 c0 -21 3 -30 8 -22 10 16 10 44 0 51 -4 2 -8 -11 -8 -29z"/>
<path d="M1672 3580 c0 -14 2 -19 5 -12 2 6 2 18 0 25 -3 6 -5 1 -5 -13z"/>
<path d="M4016 3499 c-10 -33 -17 -62 -14 -64 7 -7 40 92 36 109 -2 9 -11 -12
-22 -45z"/>
<path d="M1682 3530 c0 -14 2 -19 5 -12 2 6 2 18 0 25 -3 6 -5 1 -5 -13z"/>
<path d="M2674 3528 l-19 -23 23 19 c21 18 27 26 19 26 -2 0 -12 -10 -23 -22z"/>
<path d="M1113 3522 c10 -10 17 -32 17 -48 0 -36 18 -101 29 -108 5 -3 3 11
-5 32 -7 20 -13 51 -14 67 -1 47 -11 75 -28 75 -13 0 -13 -2 1 -18z"/>
<path d="M1690 3490 c0 -8 5 -22 10 -30 9 -13 10 -13 10 0 0 8 -5 22 -10 30
-9 13 -10 13 -10 0z"/>
<path d="M2636 3483 c-6 -14 -5 -15 5 -6 7 7 10 15 7 18 -3 3 -9 -2 -12 -12z"/>
<path d="M3706 3417 c3 -10 9 -15 12 -12 3 3 0 11 -7 18 -10 9 -11 8 -5 -6z"/>
<path d="M1726 3380 c3 -14 10 -29 15 -34 14 -16 10 6 -7 34 l-15 25 7 -25z"/>
<path d="M2631 3383 c-1 -6 -8 -19 -17 -27 -8 -9 -11 -16 -6 -16 15 0 34 28
29 42 -4 9 -6 9 -6 1z"/>
<path d="M3967 3348 c-22 -54 -16 -60 8 -8 10 22 16 42 13 45 -3 3 -12 -14
-21 -37z"/>
<path d="M1571 3304 c0 -11 3 -14 6 -6 3 7 2 16 -1 19 -3 4 -6 -2 -5 -13z"/>
<path d="M3924 3258 c-9 -18 -28 -53 -42 -77 -14 -25 -21 -42 -15 -38 15 9 85
138 79 144 -2 3 -12 -10 -22 -29z"/>
<path d="M1770 3275 c0 -10 55 -105 62 -105 3 0 -7 25 -24 55 -27 49 -38 64
-38 50z"/>
<path d="M2446 3205 c-3 -9 -6 -26 -5 -38 1 -14 4 -9 9 13 9 37 7 52 -4 25z"/>
<path d="M781 3199 c-13 -5 -22 -12 -19 -14 3 -3 17 -1 31 4 29 11 57 5 140
-34 31 -15 55 -31 52 -36 -4 -5 -1 -9 4 -9 6 0 11 -4 11 -10 0 -5 -6 -7 -13
-4 -10 3 -13 -11 -13 -60 0 -49 3 -63 13 -59 10 4 11 9 2 19 -25 30 6 12 33
-18 l27 -33 -14 50 c-8 28 -15 53 -15 58 0 4 -5 6 -11 5 -6 -2 -14 3 -16 10
-3 6 1 12 7 12 8 0 9 10 5 33 -7 31 -25 49 -55 54 -8 1 -23 6 -35 12 -28 13
-86 31 -99 30 -6 0 -22 -5 -35 -10z"/>
<path d="M1191 3154 c1 -27 5 -60 9 -74 5 -15 6 4 3 45 -7 82 -13 99 -12 29z"/>
<path d="M1143 3183 c-19 -7 -16 -32 5 -51 10 -10 12 -13 5 -8 -24 16 -24 -1
-1 -40 l22 -39 -24 20 -24 20 23 -37 c12 -21 19 -38 16 -38 -4 0 -2 -7 5 -15
19 -23 31 -8 18 23 -6 15 -12 50 -13 77 -5 105 -3 100 -32 88z"/>
<path d="M1358 3153 c7 -3 16 -2 19 1 4 3 -2 6 -13 5 -11 0 -14 -3 -6 -6z"/>
<path d="M880 3119 c-19 -10 -43 -19 -53 -19 -10 0 -15 -5 -12 -10 4 -6 1 -17
-5 -25 -9 -11 -5 -30 22 -87 33 -69 52 -113 97 -220 11 -27 22 -48 25 -48 12
0 -1 72 -14 80 -8 6 -10 10 -5 10 6 0 3 5 -5 10 -9 6 -10 10 -3 10 12 0 12 37
1 56 -4 5 -5 23 -3 39 1 17 -3 39 -11 50 -13 17 -19 14 -15 -8 2 -9 -14 -2
-37 16 -11 8 -11 12 0 18 10 7 10 9 1 9 -7 0 -13 5 -13 11 0 7 10 5 25 -5 28
-18 35 -20 35 -7 0 5 -14 14 -31 20 -23 8 -30 15 -25 27 3 8 6 20 6 25 0 6 5
7 11 4 6 -4 8 -9 5 -12 -8 -8 13 -43 25 -43 6 0 7 6 1 16 -9 16 15 84 30 84 4
0 8 5 8 10 0 15 -21 11 -60 -11z m19 -198 c-8 -2 -8 -6 1 -11 9 -5 8 -9 -2
-13 -8 -3 -15 0 -15 6 0 7 -4 20 -8 30 -7 17 -6 18 14 6 12 -8 16 -16 10 -18z
m21 -72 c0 -6 -4 -7 -10 -4 -5 3 -10 11 -10 16 0 6 5 7 10 4 6 -3 10 -11 10
-16z"/>
<path d="M3833 3104 c-45 -63 -142 -166 -207 -218 -20 -16 -36 -33 -36 -38 0
-23 190 165 239 236 18 25 30 46 27 46 -3 0 -13 -12 -23 -26z"/>
<path d="M1641 3017 c-13 -21 -12 -21 5 -5 10 10 16 20 13 22 -3 3 -11 -5 -18
-17z"/>
<path d="M3641 3004 c0 -11 3 -14 6 -6 3 7 2 16 -1 19 -3 4 -6 -2 -5 -13z"/>
<path d="M641 2967 c-1 -12 -5 -16 -13 -11 -8 5 -7 0 2 -11 14 -16 15 -17 18
-1 2 9 1 22 -1 29 -3 7 -6 4 -6 -6z"/>
<path d="M2495 2944 c8 -20 15 -38 15 -39 0 -1 11 -5 25 -7 13 -3 22 -1 19 3
-3 5 -11 9 -18 9 -8 0 -21 16 -30 35 -22 46 -31 45 -11 -1z"/>
<path d="M1640 2929 c0 -11 4 -18 10 -14 5 3 7 12 3 20 -7 21 -13 19 -13 -6z"/>
<path d="M575 2920 c-10 -11 -16 -22 -14 -24 2 -2 12 7 22 20 22 29 17 32 -8
4z"/>
<path d="M650 2885 c-1 -5 -2 -13 -2 -16 1 -3 3 -24 6 -47 3 -23 1 -42 -5 -42
-5 0 -9 -5 -9 -11 0 -5 5 -7 12 -3 7 5 9 2 5 -8 -3 -9 1 -27 8 -42 8 -14 16
-45 18 -69 l4 -42 1 45 c1 43 -33 256 -38 235z"/>
<path d="M800 2876 c0 -2 9 -6 20 -9 11 -3 18 -1 14 4 -5 9 -34 13 -34 5z"/>
<path d="M2546 2853 c-6 -14 -5 -15 5 -6 7 7 10 15 7 18 -3 3 -9 -2 -12 -12z"/>
<path d="M748 2843 c7 -3 16 -2 19 1 4 3 -2 6 -13 5 -11 0 -14 -3 -6 -6z"/>
<path d="M3539 2813 c-13 -16 -12 -17 4 -4 9 7 17 15 17 17 0 8 -8 3 -21 -13z"/>
<path d="M808 2813 c7 -3 16 -2 19 1 4 3 -2 6 -13 5 -11 0 -14 -3 -6 -6z"/>
<path d="M3455 2765 c-22 -14 -35 -25 -30 -25 12 0 75 38 75 45 0 7 -1 7 -45
-20z"/>
<path d="M3050 2765 c0 -2 10 -10 23 -16 20 -11 21 -11 8 4 -13 16 -31 23 -31
12z"/>
<path d="M2826 2751 c-3 -4 5 -6 18 -4 12 3 38 -5 57 -16 19 -12 40 -21 48
-21 8 0 -8 11 -35 25 -51 26 -79 31 -88 16z"/>
<path d="M2581 2728 c0 -9 -4 -25 -7 -35 -5 -17 -5 -17 6 0 6 10 9 25 7 35 -4
15 -5 15 -6 0z"/>
<path d="M2612 2725 c13 -14 20 -16 30 -7 8 6 43 13 78 15 l65 3 -72 2 c-50 1
-73 -2 -76 -10 -3 -10 -8 -10 -23 1 -18 14 -18 14 -2 -4z"/>
<path d="M3101 2736 c2 -2 15 -9 29 -16 23 -12 24 -12 11 3 -7 10 -20 17 -29
17 -8 0 -13 -2 -11 -4z"/>
<path d="M3384 2725 c-10 -8 -14 -15 -8 -15 6 0 17 7 24 15 16 19 9 19 -16 0z"/>
<path d="M3213 2715 c-16 -13 -16 -14 -1 -15 9 0 18 5 20 10 2 6 13 3 27 -6
l24 -17 -24 -13 c-14 -8 -18 -13 -9 -13 8 0 31 9 50 20 19 11 26 18 16 14 -10
-3 -26 1 -35 8 -26 23 -48 26 -68 12z"/>
<path d="M2520 2691 c0 -5 7 -11 15 -15 8 -3 15 -1 15 3 0 5 -7 11 -15 15 -8
3 -15 1 -15 -3z"/>
<path d="M3208 2653 c7 -3 16 -2 19 1 4 3 -2 6 -13 5 -11 0 -14 -3 -6 -6z"/>
<path d="M3115 2635 c-22 -8 -31 -13 -20 -13 11 0 38 5 60 13 22 7 31 13 20
13 -11 0 -38 -6 -60 -13z"/>
<path d="M830 2630 c-18 -12 -2 -12 25 0 13 6 15 9 5 9 -8 0 -22 -4 -30 -9z"/>
<path d="M2678 2613 c7 -3 16 -2 19 1 4 3 -2 6 -13 5 -11 0 -14 -3 -6 -6z"/>
<path d="M3018 2613 c6 -2 18 -2 25 0 6 3 1 5 -13 5 -14 0 -19 -2 -12 -5z"/>
<path d="M2798 2603 c34 -2 90 -2 125 0 34 2 6 3 -63 3 -69 0 -97 -1 -62 -3z"/>
<path d="M580 2200 c0 -5 4 -10 9 -10 6 0 13 5 16 10 3 6 -1 10 -9 10 -9 0
-16 -4 -16 -10z"/>
<path d="M2268 2131 c-27 -9 -48 -19 -48 -23 0 -8 92 20 104 32 13 13 3 11
-56 -9z"/>
<path d="M2355 2049 l-30 -21 30 7 c35 8 38 10 34 24 -3 6 -17 2 -34 -10z"/>
<path d="M2500 2050 c0 -5 5 -10 11 -10 5 0 7 5 4 10 -3 6 -8 10 -11 10 -2 0
-4 -4 -4 -10z"/>
<path d="M3476 2051 c-3 -5 -25 -12 -49 -15 -34 -5 -47 -13 -55 -31 -7 -14
-16 -25 -20 -25 -5 0 -21 -17 -35 -37 -14 -21 -41 -56 -61 -78 -20 -22 -36
-44 -36 -48 0 -5 35 33 78 84 69 83 84 96 140 118 34 13 62 28 62 33 0 11 -17
10 -24 -1z"/>
<path d="M3520 2055 c0 -7 39 -63 57 -82 38 -42 84 -102 92 -124 l10 -24 0 26
c1 16 -13 41 -39 70 -22 24 -55 65 -73 91 -28 42 -47 59 -47 43z"/>
<path d="M1700 1920 c-25 -16 -41 -30 -36 -30 10 0 86 50 86 56 0 7 -4 5 -50
-26z"/>
<path d="M715 1920 c-3 -6 1 -7 9 -4 18 7 21 14 7 14 -6 0 -13 -4 -16 -10z"/>
<path d="M1648 1838 c-36 -29 -28 -111 12 -121 49 -13 90 20 90 73 0 34 -75
69 -102 48z m46 -24 c28 -11 17 -20 -19 -16 -19 2 -35 8 -35 13 0 10 31 12 54
3z m-31 -60 c-5 -14 -2 -16 23 -10 27 6 28 5 10 -8 -21 -17 -49 -8 -60 19 -4
10 1 15 14 15 14 0 18 -5 13 -16z"/>
<path d="M3430 1780 c-6 -11 -8 -20 -6 -20 3 0 10 9 16 20 6 11 8 20 6 20 -3
0 -10 -9 -16 -20z"/>
<path d="M3610 1755 c-7 -9 -11 -17 -9 -20 3 -2 10 5 17 15 14 24 10 26 -8 5z"/>
<path d="M3396 1733 c-6 -14 -5 -15 5 -6 7 7 10 15 7 18 -3 3 -9 -2 -12 -12z"/>
<path d="M3443 1723 c-7 -2 -13 -11 -13 -19 0 -9 -4 -12 -10 -9 -5 3 -10 -1
-10 -9 0 -23 6 -20 30 14 12 17 20 30 18 29 -2 0 -9 -3 -15 -6z"/>
<path d="M493 1710 c-31 -13 -38 -51 -25 -137 10 -62 10 -77 -3 -96 -22 -34
-55 -138 -54 -172 1 -25 3 -22 12 16 9 33 16 45 27 42 13 -4 13 -3 0 6 -10 7
-11 11 -3 11 15 0 36 -37 28 -50 -3 -6 0 -10 7 -10 10 0 10 -2 -1 -9 -11 -7
-10 -11 5 -20 14 -8 15 -11 4 -11 -12 -1 -12 -3 2 -14 10 -7 23 -36 29 -64 6
-29 14 -52 19 -52 5 0 12 -9 15 -21 7 -19 52 -45 63 -34 3 3 -2 13 -11 23 -10
10 -17 22 -17 27 0 5 7 0 15 -11 8 -11 15 -14 15 -6 0 6 5 12 11 12 5 0 7 -6
3 -12 -14 -22 -11 -45 6 -68 23 -30 36 -20 43 31 3 22 8 43 11 46 11 12 87
-20 82 -34 -8 -20 9 -16 41 10 15 13 35 26 45 30 23 8 52 -26 43 -53 -10 -31
13 -79 42 -86 13 -4 27 -4 30 0 4 3 -3 6 -13 6 -28 0 -44 19 -44 54 l0 29 23
-21 c30 -29 51 -28 71 3 20 30 20 51 2 58 -10 4 -13 1 -10 -7 11 -30 -19 -26
-50 5 -30 31 -139 171 -179 229 -9 14 -30 43 -46 65 -16 22 -45 63 -65 90 -58
86 -108 131 -141 130 -16 -1 -31 -8 -33 -15 -3 -7 0 -10 6 -6 5 3 12 0 15 -7
3 -8 -4 -19 -14 -25 -18 -11 -19 -9 -19 32 0 37 5 48 31 70 31 26 23 32 -18
16z m30 -137 c-7 -2 -13 -13 -13 -24 0 -10 -4 -19 -10 -19 -5 0 -10 9 -10 19
0 18 13 29 35 29 6 0 4 -2 -2 -5z m87 -57 c12 -23 11 -28 -7 -49 -30 -32 -43
-62 -43 -94 1 -43 42 -129 83 -172 20 -22 37 -44 37 -50 0 -15 -30 -14 -64 4
-15 8 -34 15 -41 15 -22 0 -34 25 -50 101 -8 41 -22 100 -31 131 l-17 57 42
50 c47 56 64 57 91 7z m62 -83 c23 -21 23 -32 -1 -26 -25 6 -34 -22 -33 -111
l1 -71 -20 39 c-24 45 -21 121 6 162 18 28 23 29 47 7z m58 -98 c1 15 3 16 7
5 3 -8 17 -28 30 -44 28 -33 25 -40 -9 -27 -29 11 -45 30 -48 56 -4 37 2 50
10 20 5 -21 8 -24 10 -10z m-60 -266 c0 -14 -17 -10 -23 5 -4 10 -1 13 9 9 7
-3 14 -9 14 -14z"/>
<path d="M3376 1695 c-3 -8 -1 -15 4 -15 6 0 10 7 10 15 0 8 -2 15 -4 15 -2 0
-6 -7 -10 -15z"/>
<path d="M3570 1690 c-6 -11 -8 -20 -6 -20 3 0 10 9 16 20 6 11 8 20 6 20 -3
0 -10 -9 -16 -20z"/>
<path d="M800 1686 c0 -2 7 -7 16 -10 8 -3 12 -2 9 4 -6 10 -25 14 -25 6z"/>
<path d="M3211 1664 c0 -11 3 -14 6 -6 3 7 2 16 -1 19 -3 4 -6 -2 -5 -13z"/>
<path d="M3533 1628 c-20 -26 -26 -41 -15 -34 12 7 36 46 29 46 -3 0 -9 -6
-14 -12z"/>
<path d="M3352 1610 c0 -14 2 -19 5 -12 2 6 2 18 0 25 -3 6 -5 1 -5 -13z"/>
<path d="M1209 1593 c-17 -4 -39 -43 -39 -68 0 -20 36 -55 55 -55 9 0 27 11
41 26 20 19 24 31 19 52 -10 42 -34 57 -76 45z m57 -28 c21 -32 6 -75 -26 -75
-26 0 -25 4 7 35 15 14 22 25 15 25 -7 0 -10 5 -7 10 9 15 -4 12 -21 -5 -19
-18 -34 -19 -34 -2 0 17 20 37 37 37 7 0 20 -11 29 -25z"/>
<path d="M3537 1593 c-4 -3 -7 -11 -7 -17 0 -6 5 -5 12 2 6 6 9 14 7 17 -3 3
-9 2 -12 -2z"/>
<path d="M3485 1539 c-9 -17 -15 -33 -13 -35 3 -2 12 12 21 31 21 43 13 47 -8
4z"/>
<path d="M840 1509 c-12 -8 -10 -10 10 -8 42 2 48 0 55 -20 4 -13 -1 -27 -14
-40 -27 -27 -27 -41 -1 -34 21 6 29 -20 10 -32 -5 -3 -10 -1 -10 6 0 10 -3 10
-11 2 -18 -18 -7 -32 19 -22 20 7 22 15 22 73 0 54 -3 67 -19 76 -25 13 -42
13 -61 -1z"/>
<path d="M3480 1480 c-6 -11 -8 -20 -6 -20 3 0 10 9 16 20 6 11 8 20 6 20 -3
0 -10 -9 -16 -20z"/>
<path d="M3352 1460 c0 -14 2 -19 5 -12 2 6 2 18 0 25 -3 6 -5 1 -5 -13z"/>
<path d="M3408 1455 c-19 -26 -22 -35 -10 -35 7 0 34 51 29 56 -1 1 -10 -8
-19 -21z"/>
<path d="M450 1340 c0 -5 5 -10 10 -10 6 0 10 5 10 10 0 6 -4 10 -10 10 -5 0
-10 -4 -10 -10z"/>
<path d="M901 1334 c0 -11 3 -14 6 -6 3 7 2 16 -1 19 -3 4 -6 -2 -5 -13z"/>
<path d="M1122 1310 c9 -14 14 -16 20 -7 4 7 8 17 8 22 0 6 -5 3 -10 -5 -6
-10 -10 -11 -10 -2 0 6 -5 12 -10 12 -6 0 -5 -8 2 -20z"/>
<path d="M1154 1292 c-9 -14 -8 -23 6 -42 13 -17 19 -20 25 -10 6 9 4 11 -5 5
-10 -6 -12 -4 -7 8 3 9 3 16 -1 16 -19 -3 -26 2 -13 10 7 5 12 14 10 20 -3 7
-9 4 -15 -7z"/>
<path d="M1189 1223 c-13 -16 -12 -17 4 -4 9 7 17 15 17 17 0 8 -8 3 -21 -13z"/>
<path d="M2378 1223 c7 -3 16 -2 19 1 4 3 -2 6 -13 5 -11 0 -14 -3 -6 -6z"/>
<path d="M1207 1197 c-3 -7 -2 -19 3 -26 5 -10 8 -9 13 2 3 7 2 19 -3 26 -5
10 -8 9 -13 -2z"/>
<path d="M432 1180 c0 -14 2 -19 5 -12 2 6 2 18 0 25 -3 6 -5 1 -5 -13z"/>
<path d="M978 1167 c9 -10 18 -14 20 -8 4 11 33 3 44 -13 10 -14 10 -79 1 -92
-5 -5 0 -1 10 9 40 44 8 112 -55 119 -36 4 -37 3 -20 -15z"/>
<path d="M1232 1160 c-13 -21 -8 -43 19 -78 l18 -23 -1 31 c-1 22 -4 27 -10
18 -7 -9 -8 -3 -4 17 3 17 3 24 0 18 -3 -7 -10 -13 -15 -13 -6 0 -5 9 1 21 15
27 8 34 -8 9z"/>
<path d="M2300 1172 c0 -7 -6 -12 -12 -12 -14 -1 -53 -49 -45 -56 2 -3 11 1
18 9 8 7 20 12 26 10 13 -5 30 44 19 54 -3 4 -6 1 -6 -5z"/>
<path d="M451 1094 c0 -11 3 -14 6 -6 3 7 2 16 -1 19 -3 4 -6 -2 -5 -13z"/>
<path d="M2132 1071 c-8 -22 -8 -29 1 -25 7 2 13 15 13 29 2 33 -2 32 -14 -4z"/>
<path d="M2190 1075 c0 -8 2 -15 4 -15 2 0 6 7 10 15 3 8 1 15 -4 15 -6 0 -10
-7 -10 -15z"/>
<path d="M531 1041 c-23 -15 -16 -63 13 -88 33 -28 52 -29 66 -4 22 43 5 85
-40 96 -14 3 -31 1 -39 -4z m28 -63 l11 -33 -25 28 c-14 16 -23 33 -19 38 9
15 21 2 33 -33z m41 -1 c0 -26 -15 -12 -25 23 -7 22 -6 23 9 11 9 -7 16 -23
16 -34z"/>
<path d="M842 990 c32 -33 62 -60 66 -60 3 0 -20 27 -53 60 -33 33 -62 60 -65
60 -3 0 20 -27 52 -60z"/>
<path d="M985 849 c53 -50 64 -66 59 -83 -6 -18 -5 -19 9 -7 10 7 14 19 9 26
-10 16 -128 125 -136 125 -4 0 23 -28 59 -61z"/>
<path d="M1840 874 c0 -8 5 -12 10 -9 6 4 8 11 5 16 -9 14 -15 11 -15 -7z"/>
<path d="M2379 861 c14 -16 28 -27 30 -25 5 5 -40 54 -50 54 -3 0 5 -13 20
-29z"/>
<path d="M2331 863 c-1 -17 16 -25 25 -12 4 7 3 9 -4 5 -5 -3 -13 0 -15 6 -4
9 -6 10 -6 1z"/>
<path d="M2490 848 c0 -5 9 -17 21 -29 23 -23 18 -39 -5 -20 -13 11 -14 8 -10
-15 5 -25 3 -26 -12 -13 -16 13 -16 12 -5 -8 15 -30 29 -29 41 1 5 13 17 29
27 34 10 6 14 14 9 19 -5 4 -11 3 -13 -4 -3 -8 -13 -2 -28 15 -14 15 -25 24
-25 20z"/>
<path d="M2365 831 c-3 -5 -2 -12 3 -15 5 -3 9 1 9 9 0 17 -3 19 -12 6z"/>
<path d="M625 819 c-4 -6 -5 -12 -2 -15 2 -3 7 2 10 11 7 17 1 20 -8 4z"/>
<path d="M1940 810 c29 -23 48 -26 31 -6 -6 8 -22 16 -34 20 -21 5 -21 4 3
-14z"/>
<path d="M707 806 c-4 -9 0 -14 11 -14 9 1 33 -2 52 -6 l35 -7 -35 20 c-42 24
-56 26 -63 7z"/>
<path d="M2300 811 c0 -6 4 -13 10 -16 6 -3 7 1 4 9 -7 18 -14 21 -14 7z"/>
<path d="M2410 767 c14 -16 24 -31 22 -33 -1 -2 2 -12 7 -22 9 -16 11 -16 28
0 18 19 10 37 -20 42 -9 1 -26 11 -39 21 -21 18 -20 17 2 -8z m58 -39 c-6 -16
-21 -14 -24 4 -1 11 3 15 12 11 8 -3 13 -10 12 -15z"/>
<path d="M2220 772 c0 -5 7 -15 15 -22 8 -7 15 -8 15 -2 0 5 -7 15 -15 22 -8
7 -15 8 -15 2z"/>
<path d="M2295 689 c40 -45 79 -59 89 -32 4 9 -1 10 -17 3 -18 -6 -30 -1 -67
33 l-44 42 39 -46z"/>
<path d="M2392 704 c9 -9 21 -15 27 -13 6 2 -2 10 -17 17 -25 11 -25 11 -10
-4z"/>
<path d="M725 690 c3 -5 18 -10 32 -10 32 0 28 5 -10 14 -19 4 -26 3 -22 -4z"/>
<path d="M1531 690 c0 -8 4 -22 9 -30 12 -18 12 -2 0 25 -6 13 -9 15 -9 5z"/>
<path d="M2264 671 c7 -11 46 -35 46 -28 0 3 -12 12 -26 22 -15 9 -23 12 -20
6z"/>
<path d="M2255 620 c8 -9 12 -20 8 -25 -5 -4 -3 -5 4 -1 7 4 10 13 6 21 -6 17
12 21 20 5 3 -6 4 -5 3 2 -2 7 -15 13 -29 13 -24 1 -25 -1 -12 -15z"/>
<path d="M2840 598 c0 -7 5 -20 10 -28 8 -12 10 -11 10 7 0 12 -4 25 -10 28
-5 3 -10 0 -10 -7z"/>
<path d="M1236 591 c-55 -6 -57 -7 -40 -23 25 -22 74 -34 74 -18 0 6 -4 8 -10
5 -5 -3 -10 1 -10 10 0 13 6 15 30 10 23 -5 30 -3 30 9 0 9 -3 15 -7 14 -5 -1
-34 -4 -67 -7z"/>
<path d="M2971 593 c-1 -17 16 -25 25 -12 4 7 3 9 -4 5 -5 -3 -13 0 -15 6 -4
9 -6 10 -6 1z"/>
<path d="M1135 580 c-18 -8 -17 -9 8 -9 15 -1 27 4 27 9 0 12 -8 12 -35 0z"/>
<path d="M1295 540 c-27 -27 -46 -52 -43 -55 3 -3 11 1 18 10 7 8 18 15 26 15
7 0 16 9 19 20 3 11 10 20 15 20 5 0 7 -6 4 -14 -3 -8 0 -17 7 -22 7 -4 10 -3
7 2 -3 5 -2 18 3 29 7 18 8 18 10 -5 1 -14 3 -29 4 -35 2 -5 3 -14 4 -20 1 -5
5 -3 11 5 7 11 11 9 19 -13 6 -16 11 -33 11 -38 0 -5 4 -9 9 -9 6 0 24 -27 42
-60 18 -33 34 -58 36 -56 3 3 -27 60 -66 129 -39 68 -71 129 -71 135 0 22 -15
13 -65 -38z"/>
<path d="M2984 548 l-19 -23 23 19 c12 11 22 21 22 23 0 8 -8 2 -26 -19z"/>
<path d="M3065 560 c-4 -6 1 -7 11 -3 13 5 15 2 9 -18 -7 -21 -6 -22 9 -10 11
9 16 10 16 2 0 -7 5 -9 12 -5 8 5 9 2 5 -9 -3 -10 -2 -17 2 -17 5 0 11 7 14
14 4 10 -6 23 -27 35 -38 24 -42 25 -51 11z"/>
<path d="M3029 543 c-13 -16 -12 -17 4 -4 16 13 21 21 13 21 -2 0 -10 -8 -17
-17z"/>
<path d="M3158 503 c6 -2 18 -2 25 0 6 3 1 5 -13 5 -14 0 -19 -2 -12 -5z"/>
<path d="M2842 450 c0 -14 2 -19 5 -12 2 6 2 18 0 25 -3 6 -5 1 -5 -13z"/>
<path d="M3240 449 c0 -5 5 -7 10 -4 6 3 10 8 10 11 0 2 -4 4 -10 4 -5 0 -10
-5 -10 -11z"/>
<path d="M3035 410 c3 -5 1 -10 -5 -10 -7 0 -10 -5 -8 -11 6 -19 21 -14 24 9
2 12 -1 22 -7 22 -5 0 -7 -4 -4 -10z"/>
<path d="M2806 397 c3 -10 9 -15 12 -12 3 3 0 11 -7 18 -10 9 -11 8 -5 -6z"/>
<path d="M2776 385 c4 -8 8 -15 10 -15 2 0 4 7 4 15 0 8 -4 15 -10 15 -5 0 -7
-7 -4 -15z"/>
<path d="M2756 343 c-6 -14 -5 -15 5 -6 7 7 10 15 7 18 -3 3 -9 -2 -12 -12z"/>
<path d="M2733 275 c-6 -19 -8 -35 -3 -35 8 0 23 60 17 67 -2 1 -8 -13 -14
-32z"/>
<path d="M730 265 c0 -14 4 -33 10 -43 15 -27 40 -140 40 -183 0 -43 9 -49 28
-19 7 11 8 20 4 20 -5 0 -9 6 -10 13 -1 15 -10 92 -16 130 -2 15 -13 37 -26
49 -13 12 -20 28 -17 39 3 11 1 19 -4 19 -5 0 -9 -11 -9 -25z"/>
<path d="M3045 190 l-29 -30 -12 27 c-15 33 -18 25 -5 -10 12 -30 3 -41 -17
-24 -13 11 -14 9 -2 -10 l14 -22 21 22 c12 12 34 34 49 50 16 15 24 27 19 27
-5 0 -22 -14 -38 -30z"/>
<path d="M802 189 c-10 -16 -10 -19 -1 -13 9 5 10 2 5 -12 -5 -14 -4 -16 4 -8
13 13 22 54 12 54 -4 0 -13 -9 -20 -21z"/>
<path d="M852 183 c2 -10 -2 -17 -9 -16 -11 2 -10 -33 2 -45 2 -3 -1 -12 -8
-21 -10 -14 -10 -14 4 -4 9 7 18 11 21 8 2 -3 5 2 5 10 0 8 -4 12 -8 9 -4 -2
-7 5 -6 16 1 15 6 18 21 14 19 -6 19 -6 3 11 -10 10 -15 20 -11 24 4 3 9 1 11
-5 2 -7 13 -10 23 -7 11 3 20 1 20 -5 0 -6 10 -9 21 -7 29 6 43 -4 29 -20 -7
-9 -8 -15 -1 -19 6 -4 8 -12 5 -20 -6 -15 -34 -17 -50 -5 -7 6 -18 1 -29 -11
-12 -14 -22 -17 -30 -10 -8 6 -12 6 -13 -3 -5 -39 -9 -54 -17 -67 -7 -12 -6
-13 7 -3 8 7 18 9 23 5 4 -4 4 3 1 15 -5 16 -2 25 13 32 29 16 40 13 34 -9 -3
-11 -12 -20 -19 -20 -8 0 -14 -7 -14 -15 0 -10 11 -15 35 -15 28 0 35 4 35 20
0 13 7 20 20 20 11 0 20 7 20 15 0 8 5 15 10 15 6 0 10 5 10 10 0 18 -22 10
-27 -10 -6 -24 -33 -27 -33 -3 0 9 3 13 6 10 4 -3 15 4 25 17 21 27 25 41 8
30 -7 -4 -10 -1 -7 6 10 32 26 17 37 -35 15 -66 27 -67 17 -2 -8 52 -35 81
-91 96 -62 17 -96 14 -93 -6z"/>
<path d="M3049 152 l-34 -37 35 30 c19 17 37 31 39 33 2 1 2 4 -1 7 -2 3 -20
-12 -39 -33z"/>
<path d="M891 136 c-10 -11 -9 -14 1 -12 14 2 23 15 15 22 -2 2 -10 -2 -16
-10z"/>
<path d="M2952 130 c2 -17 -2 -24 -10 -22 -8 1 -11 -2 -8 -7 4 -5 2 -12 -4
-16 -5 -3 -10 0 -10 8 0 8 -7 21 -17 28 -15 13 -15 12 -5 -8 15 -27 16 -56 2
-48 -5 3 -10 -2 -10 -11 0 -16 -1 -16 -19 0 -18 16 -18 16 -13 -11 5 -25 4
-27 -12 -14 -9 8 -19 11 -23 7 -3 -3 -1 -6 6 -6 8 0 11 -7 7 -15 -8 -23 3 -18
58 24 76 59 86 74 69 97 -13 18 -13 17 -11 -6z"/>
<path d="M3008 87 c-36 -34 -74 -67 -84 -74 -16 -10 -8 -12 46 -11 l66 1 12
50 c6 28 19 58 28 68 8 9 11 19 7 22 -5 3 -39 -22 -75 -56z"/>
<path d="M805 131 c-3 -5 -2 -12 3 -15 5 -3 9 1 9 9 0 17 -3 19 -12 6z"/>
<path d="M1441 60 c-29 -33 -48 -60 -43 -60 11 0 106 109 100 115 -2 3 -28
-22 -57 -55z"/>
<path d="M2680 99 c0 -15 -7 -32 -15 -39 -8 -7 -15 -18 -15 -24 0 -6 5 -4 10
4 9 13 11 13 21 0 9 -12 10 -12 5 4 -4 10 -1 24 5 32 7 9 7 18 0 31 -9 16 -10
15 -11 -8z"/>
<path d="M2801 94 c0 -11 3 -14 6 -6 3 7 2 16 -1 19 -3 4 -6 -2 -5 -13z"/>
<path d="M2627 43 c-3 -5 -1 -17 4 -28 7 -17 8 -17 8 8 1 27 -4 34 -12 20z"/>
</g>
</svg>
